<svg width="512" height="256" viewBox="0 0 512 256" fill="none"
  xmlns="http://www.w3.org/2000/svg">
  <path fill-rule="evenodd" clip-rule="evenodd" d="M89.2198 83H0V172.22H89.2198V83ZM26.15 92.1248C14.8052 98.6089 7.14715 110.807 7.09717 124.798L33.7915 124.629L33.9642 124.924C33.9689 120.867 36.1902 117.329 39.4822 115.456L26.15 92.1248ZM44.8631 162.703C37.9318 162.703 31.4366 160.835 25.853 157.577L39.247 134.279C40.8871 135.267 42.8087 135.835 44.8631 135.835C46.869 135.835 48.7482 135.293 50.3626 134.348L50.2098 134.615L63.6654 157.697C58.1292 160.881 51.7089 162.703 44.8631 162.703ZM82.629 125.086L82.6295 124.936C82.6295 111.035 75.1189 98.8885 63.9345 92.3322L50.5272 115.558H50.4194C53.6179 117.457 55.7622 120.946 55.7622 124.936L55.762 124.991L55.7612 125.078L82.629 125.086ZM44.8632 132.287C48.9227 132.287 52.2139 128.996 52.2139 124.936C52.2139 120.877 48.9227 117.586 44.8632 117.586C40.8036 117.586 37.5127 120.877 37.5127 124.936C37.5127 128.996 40.8036 132.287 44.8632 132.287Z"/>
  <path d="M122.885 131.104C122.885 133.385 121.379 134.572 118.779 134.572H113.03V127.5H118.688C121.288 127.5 122.885 128.823 122.885 131.104ZM122.109 118.466C122.109 120.656 120.695 121.797 118.14 121.797H113.03V115.09H118.14C120.695 115.09 122.109 116.277 122.109 118.466ZM130.778 132.154C130.778 128.504 128.36 125.219 124.619 124.443C127.721 123.531 130.048 121.021 130.048 117.143C130.048 112.079 126.17 108.84 119.646 108.84H105.229V140.868H120.147C126.9 140.868 130.778 137.446 130.778 132.154Z"/>
  <path d="M146.526 121.295C149.127 121.295 151.317 122.892 151.317 125.675H141.553C142.009 122.846 143.971 121.295 146.526 121.295ZM158.708 132.427H150.404C149.765 133.796 148.534 134.891 146.344 134.891C143.834 134.891 141.781 133.34 141.507 130.009H159.164C159.255 129.234 159.301 128.458 159.301 127.728C159.301 119.972 154.054 115.045 146.617 115.045C139.044 115.045 133.751 120.063 133.751 128.139C133.751 136.214 139.135 141.233 146.617 141.233C152.959 141.233 157.476 137.4 158.708 132.427Z"/>
  <path d="M181.529 115.41H162.094V121.843H172.587L162.002 134.663V140.868H181.758V134.435H170.717L181.529 121.614V115.41Z"/>
  <path d="M193.852 119.014V115.41H186.051V153.004H193.852V137.309C195.267 139.453 197.959 141.233 201.7 141.233C207.95 141.233 212.923 136.123 212.923 128.093C212.923 120.063 207.95 115.045 201.7 115.045C197.959 115.045 195.267 116.778 193.852 119.014ZM204.985 128.093C204.985 132.154 202.338 134.435 199.373 134.435C196.453 134.435 193.807 132.199 193.807 128.139C193.807 124.078 196.453 121.843 199.373 121.843C202.338 121.843 204.985 124.033 204.985 128.093Z"/>
  <path d="M228.24 121.295C230.84 121.295 233.03 122.892 233.03 125.675H223.267C223.723 122.846 225.685 121.295 228.24 121.295ZM240.421 132.427H232.118C231.479 133.796 230.247 134.891 228.057 134.891C225.548 134.891 223.495 133.34 223.221 130.009H240.877C240.969 129.234 241.014 128.458 241.014 127.728C241.014 119.972 235.767 115.045 228.331 115.045C220.757 115.045 215.465 120.063 215.465 128.139C215.465 136.214 220.848 141.233 228.331 141.233C234.672 141.233 239.189 137.4 240.421 132.427Z"/>
  <path d="M243.579 128.139C243.579 136.214 248.871 141.233 256.353 141.233C262.741 141.233 267.257 137.537 268.58 131.652H260.277C259.593 133.522 258.361 134.572 256.216 134.572C253.433 134.572 251.517 132.382 251.517 128.139C251.517 123.896 253.433 121.706 256.216 121.706C258.361 121.706 259.638 122.846 260.277 124.626H268.58C267.257 118.558 262.741 115.045 256.353 115.045C248.871 115.045 243.579 120.109 243.579 128.139ZM255.943 108.657L248.871 104.688V110.072L255.943 113.676L263.014 110.072V104.688L255.943 108.657Z"/>
  <path d="M290.319 140.868H298.075V125.994C298.075 119.151 294.151 115.136 288.266 115.136C284.844 115.136 282.107 116.642 280.556 118.786V115.41H272.754V140.868H280.556V127.044C280.556 123.576 282.472 121.66 285.437 121.66C288.403 121.66 290.319 123.576 290.319 127.044V140.868Z"/>
  <path d="M315.221 131.332L309.336 115.41H300.622L310.978 140.001L305.138 152.958H313.533L329.501 115.41H321.061L315.221 131.332ZM309.381 108.292V113.676L320.377 109.068V103L309.381 108.292Z"/>
  <path d="M349.26 119.242C349.26 121.751 347.891 123.257 344.971 123.257H340.135V115.318H344.971C347.891 115.318 349.26 116.87 349.26 119.242ZM332.333 108.84V140.868H340.135V128.777H342.006L348.667 140.868H357.472L350.081 128.184C355.009 126.724 357.198 122.938 357.198 118.923C357.198 113.357 353.275 108.84 345.428 108.84H332.333Z"/>
  <path d="M360.545 128.093C360.545 136.123 365.518 141.233 371.723 141.233C375.51 141.233 378.201 139.499 379.616 137.263V140.868H387.417V115.41H379.616V119.014C378.247 116.778 375.555 115.045 371.768 115.045C365.518 115.045 360.545 120.063 360.545 128.093ZM379.616 128.139C379.616 132.199 377.015 134.435 374.05 134.435C371.13 134.435 368.483 132.154 368.483 128.093C368.483 124.033 371.13 121.843 374.05 121.843C377.015 121.843 379.616 124.078 379.616 128.139Z"/>
  <path d="M391.51 128.093C391.51 136.123 396.483 141.233 402.734 141.233C406.475 141.233 409.167 139.545 410.581 137.218V140.868H418.383V107.106H410.581V118.923C409.03 116.596 406.11 115.045 402.734 115.045C396.483 115.045 391.51 120.063 391.51 128.093ZM410.581 128.139C410.581 132.199 407.98 134.435 405.015 134.435C402.095 134.435 399.449 132.154 399.449 128.093C399.449 124.033 402.095 121.843 405.015 121.843C407.98 121.843 410.581 124.078 410.581 128.139Z"/>
  <path d="M448.937 128.139C448.937 120.063 443.189 115.045 435.707 115.045C428.27 115.045 422.476 120.063 422.476 128.139C422.476 136.214 428.133 141.233 435.615 141.233C443.098 141.233 448.937 136.214 448.937 128.139ZM430.414 128.139C430.414 123.804 432.878 121.797 435.707 121.797C438.444 121.797 440.999 123.804 440.999 128.139C440.999 132.427 438.398 134.48 435.615 134.48C432.787 134.48 430.414 132.427 430.414 128.139Z"/>
  <path d="M470.641 140.868H478.397V125.994C478.397 119.151 474.474 115.136 468.588 115.136C465.166 115.136 462.429 116.642 460.878 118.786V115.41H453.076V140.868H460.878V127.044C460.878 123.576 462.794 121.66 465.76 121.66C468.725 121.66 470.641 123.576 470.641 127.044V140.868Z"/>
  <path d="M486.621 138.445C486.621 137.236 485.685 136.3 484.317 136.3C482.925 136.3 481.99 137.236 481.99 138.445C481.99 139.608 482.925 140.543 484.317 140.543C485.685 140.543 486.621 139.608 486.621 138.445Z"/>
  <path d="M488.154 133.996C488.154 138.034 490.8 140.543 494.541 140.543C497.735 140.543 499.993 138.695 500.655 135.753H496.503C496.161 136.688 495.545 137.213 494.473 137.213C493.081 137.213 492.123 136.118 492.123 133.996C492.123 131.875 493.081 130.78 494.473 130.78C495.545 130.78 496.184 131.35 496.503 132.24H500.655C499.993 129.206 497.735 127.449 494.541 127.449C490.8 127.449 488.154 129.981 488.154 133.996Z"/>
  <path d="M511.797 127.632H502.08V130.848H507.326L502.034 137.258V140.361H511.914V137.144H506.391L511.797 130.734V127.632Z"/>
</svg>
