<svg width="512" height="256" viewBox="0 0 512 256" fill="none"
  xmlns="http://www.w3.org/2000/svg">
  <path d="M0 128.182C0 72.8523 41.8345 35.0663 94.4649 35.0663C110.087 34.4419 125.568 38.2394 139.128 46.0219C152.688 53.8045 163.776 65.2561 171.117 79.0599L138.189 95.254C133.977 87.3211 127.678 80.6896 119.972 76.0756C112.266 71.4616 103.446 69.0404 94.4649 69.0737C63.1628 69.0737 39.4117 94.1806 39.4117 128.182C39.4117 162.183 63.1628 187.284 94.4649 187.284C103.457 187.374 112.3 184.978 120.016 180.359C127.732 175.74 134.021 169.078 138.189 161.11L171.117 177.034C163.767 190.849 152.685 202.323 139.133 210.147C125.581 217.972 110.104 221.833 94.4649 221.291C41.8345 221.291 0 183.511 0 128.182Z"/>
  <path d="M194.058 38.0351H321.476V70.9629H232.39V110.124H319.561V143.045H232.39V218.083H194.058V38.0351Z"/>
  <path d="M435.349 35.0662C450.13 34.5242 464.795 37.8798 477.87 44.7964C490.945 51.713 501.971 61.9471 509.841 74.4716L477.993 91.7452C473.307 84.7411 466.961 79.0055 459.52 75.0496C452.079 71.0938 443.775 69.0408 435.349 69.0736C402.709 69.0736 378.939 94.1806 378.939 128.182C378.939 162.183 402.697 187.284 435.349 187.284C449.511 187.361 463.257 182.493 474.214 173.519V151.663H426.172V118.735H512V187.553C502.451 198.438 490.651 207.117 477.415 212.989C464.18 218.861 449.826 221.786 435.349 221.561C382.718 221.561 339.534 184.861 339.534 128.182C339.534 71.2077 382.699 35.0662 435.349 35.0662Z"/>
</svg>
