<svg width="512" height="256" viewBox="0 0 512 256" fill="none"
  xmlns="http://www.w3.org/2000/svg">
  <path d="M190.119 118.248C186.999 116.596 184.43 114.211 182.778 111.275C180.943 108.338 180.026 104.852 180.026 101.181C180.026 97.5111 180.943 94.0244 182.778 91.0882C184.614 88.152 186.999 85.7663 190.119 84.1147C193.239 82.4631 196.909 81.5455 200.763 81.5455C204.249 81.5455 207.369 82.096 210.122 83.3806C212.875 84.6652 215.26 86.3168 217.095 88.7025L210.305 94.9419C207.92 92.0057 204.8 90.5376 201.313 90.5376C199.295 90.5376 197.459 90.9046 195.808 91.8222C194.156 92.7398 192.872 94.0244 192.138 95.676C191.22 97.3276 190.853 99.1627 190.853 101.365C190.853 103.567 191.22 105.402 192.138 107.054C193.055 108.705 194.34 109.99 195.808 110.908C197.459 111.825 199.295 112.192 201.313 112.192C204.8 112.192 207.736 110.724 210.305 107.788L217.095 114.027C215.26 116.413 212.875 118.065 210.122 119.349C207.369 120.634 204.249 121.184 200.763 121.184C196.725 120.817 193.239 119.9 190.119 118.248Z"/>
  <path d="M238.199 109.99H232.327V120.083H221.683V82.2796H238.933C242.42 82.2796 245.356 82.8301 247.925 83.9312C250.495 85.0323 252.33 86.6839 253.798 88.7025C255.082 90.7211 255.816 93.2903 255.816 96.043C255.816 98.7957 255.266 101.181 253.981 103.2C252.697 105.219 250.862 106.87 248.476 107.971L256.55 119.9H245.173L238.199 109.99ZM243.338 92.0057C242.237 91.0882 240.585 90.5376 238.383 90.5376H232.51V101.548H238.383C240.585 101.548 242.237 100.998 243.338 100.08C244.439 99.1627 244.989 97.6946 244.989 96.043C244.989 94.3914 244.439 93.1068 243.338 92.0057Z"/>
  <path d="M269.947 118.248C266.827 116.596 264.258 114.211 262.423 111.275C260.588 108.338 259.67 104.852 259.67 101.181C259.67 97.5111 260.588 94.0244 262.423 91.0882C264.258 88.152 266.827 85.7663 269.947 84.1147C273.067 82.4631 276.737 81.5455 280.774 81.5455C284.811 81.5455 288.298 82.4631 291.601 84.1147C294.721 85.7663 297.29 88.152 299.125 91.0882C300.96 94.0244 301.878 97.5111 301.878 101.181C301.878 104.852 300.96 108.338 299.125 111.275C297.29 114.211 294.721 116.596 291.601 118.248C288.482 119.9 284.811 120.817 280.774 120.817C276.737 120.817 273.25 119.9 269.947 118.248ZM285.912 110.54C287.381 109.623 288.665 108.338 289.583 106.687C290.5 105.035 290.867 103.2 290.867 100.998C290.867 98.7957 290.5 96.9606 289.583 95.3089C288.665 93.6573 287.381 92.3727 285.912 91.4552C284.444 90.5376 282.609 90.1706 280.774 90.1706C278.939 90.1706 277.104 90.5376 275.636 91.4552C274.168 92.3727 272.883 93.6573 271.966 95.3089C271.048 96.9606 270.681 98.7957 270.681 100.998C270.681 103.2 271.048 105.035 271.966 106.687C272.883 108.338 274.168 109.623 275.636 110.54C277.104 111.458 278.939 111.825 280.774 111.825C282.609 111.825 284.444 111.458 285.912 110.54Z"/>
  <path d="M365.373 82.2796L353.078 120.083H341.7L334.543 97.1441L327.019 120.083H315.642L303.346 82.2796H314.357L322.064 106.503L330.139 82.2796H340.049L347.756 106.687L355.647 82.2796H365.373Z"/>
  <path d="M405.196 82.2796V120.083H396.387L379.687 99.8968V120.083H369.227V82.2796H378.036L394.735 102.466V82.2796H405.196Z"/>
  <path d="M412.72 82.2796H423.363V120.083H412.72V82.2796Z"/>
  <path d="M467.039 82.2796V120.083H458.231L441.531 99.8968V120.083H431.071V82.2796H439.879L456.579 102.466V82.2796H467.039Z"/>
  <path d="M499.888 100.264H509.431V115.862C507.229 117.33 504.843 118.615 501.907 119.349C498.97 120.083 496.218 120.634 493.465 120.634C489.428 120.634 485.941 119.716 482.821 118.065C479.702 116.413 477.132 114.027 475.297 111.091C473.462 108.155 472.545 104.668 472.545 100.998C472.545 97.3276 473.462 93.8409 475.297 90.9047C477.132 87.9685 479.518 85.5828 482.821 83.9312C485.941 82.2796 489.611 81.362 493.649 81.362C497.135 81.362 500.255 81.9125 503.191 83.1971C506.128 84.4817 508.33 86.1333 510.165 88.3355L503.375 94.5749C500.806 91.8222 497.686 90.3541 494.199 90.3541C490.896 90.3541 488.327 91.2717 486.308 93.2903C484.289 95.309 483.372 97.8781 483.372 101.181C483.372 103.2 483.739 105.219 484.657 106.687C485.574 108.338 486.859 109.623 488.51 110.54C490.162 111.458 491.997 112.009 494.016 112.009C496.034 112.009 498.053 111.642 499.705 110.724V100.264H499.888Z"/>
  <path d="M207.186 167.796H191.22L188.284 175.137H177.457L194.156 137.333H204.616L221.316 175.137H210.122L207.186 167.796ZM204.066 159.905L199.295 147.794L194.523 159.905H204.066Z"/>
  <path d="M240.768 165.227H234.896V175.32H224.252V137.333H241.502C244.989 137.333 247.925 137.884 250.495 138.985C253.064 140.086 254.899 141.738 256.367 143.756C257.651 145.775 258.386 148.344 258.386 151.097C258.386 153.849 257.835 156.235 256.55 158.254C255.266 160.272 253.431 161.924 251.045 163.025L259.12 174.953H247.742L240.768 165.227ZM245.907 147.243C244.806 146.325 243.154 145.775 240.952 145.775H235.079V156.786H240.952C243.154 156.786 244.806 156.235 245.907 155.318C247.008 154.4 247.558 152.932 247.558 151.28C247.558 149.629 247.008 148.344 245.907 147.243Z"/>
  <path d="M271.782 145.958H260.221V137.517H294.171V145.958H282.609V175.32H271.965V145.958H271.782Z"/>
  <path d="M302.245 174.77C299.309 174.036 297.107 172.935 295.272 171.834L298.758 163.943C300.41 165.044 302.429 165.961 304.631 166.695C306.833 167.429 309.035 167.796 311.237 167.796C315.274 167.796 317.477 166.695 317.477 164.677C317.477 163.576 316.926 162.842 315.641 162.291C314.54 161.74 312.522 161.19 309.953 160.639C307.016 160.089 304.814 159.355 302.796 158.621C300.961 157.887 299.309 156.786 297.841 155.318C296.556 153.849 295.822 151.647 295.822 149.078C295.822 146.692 296.373 144.674 297.657 142.839C298.942 141.004 300.777 139.535 303.346 138.434C305.915 137.333 308.852 136.783 312.522 136.783C315.091 136.783 317.477 137.15 319.862 137.7C322.248 138.251 324.45 139.168 326.285 140.086L322.982 147.977C319.312 145.958 315.825 145.041 312.522 145.041C310.32 145.041 308.852 145.408 307.934 145.958C307.016 146.509 306.466 147.427 306.466 148.344C306.466 149.262 307.016 150.179 308.117 150.546C309.219 151.097 311.054 151.647 313.623 152.198C316.559 152.748 318.945 153.482 320.78 154.216C322.615 154.951 324.267 156.052 325.735 157.52C327.203 158.988 327.753 161.19 327.753 163.759C327.753 165.961 327.203 168.163 325.918 169.999C324.634 171.834 322.798 173.302 320.229 174.403C317.66 175.504 314.724 176.054 311.054 176.054C308.117 176.054 305.181 175.504 302.245 174.77Z"/>
  <path d="M76.8918 53.4681C35.4179 53.4681 1.65161 87.2344 1.65161 128.708C1.65161 170.182 35.4179 203.948 76.8918 203.948C118.366 203.948 152.132 170.182 152.132 128.708C152.132 87.2344 118.366 53.4681 76.8918 53.4681ZM102.033 156.969H76.8918H76.7082H51.567L37.4366 104.485H53.9527L59.4581 125.956H63.4953L67.3491 104.485H76.7082H76.8918H86.2509L90.1047 125.956H94.1419L99.6473 104.485H116.163L102.033 156.969Z"/>
</svg>
