<svg width="512" height="256" viewBox="0 0 512 256" fill="none"
  xmlns="http://www.w3.org/2000/svg">
  <path d="M1.642 60H4.222C8.094 62.824 11.432 66.297 15.073 69.398C17.42 71.34 19.376 73.823 22.078 75.284C23.95 75.547 25.822 75.071 27.674 74.834C34.685 73.67 41.799 73.354 48.9 73.233C58.22 73.137 67.579 73.31 76.815 74.616C79.002 74.886 81.195 75.516 83.408 75.272C85.955 73.844 87.839 71.535 90.052 69.676C93.789 66.467 97.269 62.948 101.218 60.002H103.63C104.228 60.889 104.91 61.739 105.296 62.748C105.669 64.408 104.331 65.707 103.25 66.749C99.307 70.313 95.184 73.683 91.364 77.375C95.795 79.266 101.006 80.546 103.881 84.766C106.389 88.664 105.734 93.617 104.8 97.907C103.719 102.371 101.873 107.028 98.052 109.832C95.202 111.968 91.446 111.421 88.114 111.485C64.746 111.44 41.378 111.447 18.01 111.485C14.511 111.402 10.53 112.032 7.565 109.716C3.532 106.564 1.706 101.444 0.727 96.588C0.052 92.485 -0.405 87.686 2.316 84.181C5.21 80.514 9.893 79.196 14.093 77.646C9.784 72.789 4.232 69.213 0 64.293V61.668C0.939 61.989 1.968 60.935 1.641 60.002L1.642 60ZM32.439 86.675C30.573 87.434 29.178 88.972 27.66 90.239C26.573 91.287 25.261 92.246 24.701 93.693C24.212 95.597 25.794 97.526 27.66 97.81C29.68 96.941 31.005 95.025 32.883 93.918C35.186 94.323 36.408 97.05 38.627 97.764C40.943 97.642 42.595 94.715 41.18 92.766C39.727 91.01 37.919 89.595 36.202 88.116C35.147 87.306 33.867 86.205 32.439 86.675ZM71.669 86.655C69.514 87.517 67.945 89.344 66.189 90.797C65.25 91.761 63.867 92.656 63.816 94.142C63.558 95.936 65.122 97.616 66.865 97.763C69.084 97.03 70.293 94.354 72.602 93.904C74.487 95.004 75.786 96.985 77.838 97.789C80.012 97.532 81.774 94.779 80.36 92.855C78.958 91.047 77.118 89.639 75.4 88.147C74.345 87.343 73.104 86.224 71.669 86.655V86.655ZM27.589 115.883C29.127 114.442 30.683 112.822 32.754 112.204C33.924 112.577 34.626 113.754 35.552 114.513C41.836 120.81 51.626 123.698 60.187 120.829C65.403 119.324 69.546 115.716 73.347 112.01C76.293 113.432 78.628 115.766 80.815 118.14C87.569 125.601 93.435 133.976 97.493 143.213C100.387 150.057 103.783 156.752 105.662 163.97C105.862 165.508 106.607 167.816 104.858 168.71C102.427 169.727 99.706 169.662 97.12 169.669C95.55 169.599 93.511 169.631 92.759 167.932C90.276 163.179 88.771 157.943 85.954 153.35C84.976 153.498 84.005 153.639 83.034 153.768C84.462 157.961 86.05 162.104 87.163 166.401C89.64 174.525 92.045 183.099 90.411 191.634C89.98 193.827 87.639 194.78 85.702 195.236C82.049 195.976 78.299 195.924 74.594 196.072C70.375 196.091 65.994 196.497 61.961 194.972C61.884 192.72 62.122 190.424 61.627 188.205C59.64 185.439 55.903 184.847 52.725 184.912C49.785 184.97 46.364 185.691 44.576 188.244C43.984 190.437 44.254 192.746 44.177 194.997C39.295 196.728 34.033 196.007 28.965 195.987C24.733 195.691 20.236 196.032 16.294 194.199C14.107 193.292 14.229 190.603 14.235 188.635C14.583 181.572 16.261 174.638 18.551 167.975C19.882 163.177 21.536 158.475 23.137 153.76C22.16 153.632 21.181 153.496 20.204 153.355C18.024 157.201 16.358 161.312 14.698 165.403C13.991 166.735 13.598 168.626 12.1 169.262C8.691 169.944 5.05 169.854 1.712 168.876C0.181 168.593 0.335 166.696 0.361 165.506C0.914 160.843 3.037 156.565 4.767 152.256C7.43 146.21 9.803 140.003 13.271 134.362C17.349 127.711 22.058 121.394 27.589 115.882V115.883Z"/>
  <path d="M113.723 73.566C122.766 73.418 131.816 73.553 140.867 73.508C149.795 73.56 158.832 73.187 167.625 75.045C175.401 76.666 183.133 79.277 189.636 83.941C199.452 91.036 206.179 101.745 209.968 113.124C213.743 124.059 214.374 136.004 212.027 147.324C210.168 156.464 206.952 165.591 201.124 172.988C194.814 180.269 186.767 186.206 177.621 189.384C169.311 192.117 160.556 193.481 151.802 193.346C139.111 193.231 126.414 193.526 113.73 193.204C113.53 187.898 113.389 182.558 113.8 177.259C122.394 177.227 130.987 177.278 139.58 177.259C149.344 177.194 159.372 177.908 168.795 174.802C176.777 172.441 184.001 167.437 188.67 160.516C194.871 151.453 196.704 140.011 195.771 129.237C194.42 117.826 189.358 106.403 180.334 99.031C172.86 93.037 163.256 89.988 153.724 89.961C140.435 89.986 127.152 89.955 113.871 89.993C113.305 84.545 113.581 79.033 113.723 73.565V73.566ZM279.569 74.557C280.398 73.161 282.277 73.624 283.641 73.47C289.675 73.579 295.708 73.405 301.741 73.566C302.037 87.048 301.773 100.543 301.863 114.031C301.863 136.543 301.863 159.056 301.856 181.569C301.837 185.454 301.991 189.339 301.741 193.211C295.952 193.436 290.144 193.43 284.355 193.218C284.162 161.025 284.477 128.826 284.201 96.639C264.12 126.516 244.244 156.536 224.189 186.438C222.671 188.587 221.468 190.973 219.693 192.928C218.162 193.552 216.445 193.308 214.836 193.378C209.272 193.23 203.709 193.52 198.151 193.205C205.432 182.116 213.157 171.316 220.612 160.343C240.249 131.739 259.958 103.181 279.569 74.557V74.557ZM393.136 73.47C400.36 73.18 407.602 73.251 414.819 73.438C415.019 94.124 414.709 114.816 414.973 135.496C419.591 129.681 423.476 123.313 427.805 117.274C437.923 102.692 447.918 88.027 458.113 73.496C465.324 73.149 472.566 73.264 479.789 73.438C479.873 113.362 479.879 153.294 479.782 193.224C473.993 193.43 468.191 193.436 462.402 193.217C462.106 181.832 462.37 170.441 462.28 159.056C462.273 138.255 462.299 117.453 462.267 96.657C455.05 106.794 448.387 117.323 441.285 127.55C427.694 147.85 413.826 167.976 400.614 188.527C399.609 190.117 398.561 191.498 397.405 192.781L397.43 192.753C397.005 182.822 397.365 172.858 397.25 162.914C397.269 140.839 397.199 118.764 397.288 96.682C391.151 105.14 385.658 114.036 379.728 122.636C365.423 144.113 350.976 165.5 336.658 186.971C335.295 189.081 333.918 191.178 332.425 193.191C325.201 193.474 317.959 193.41 310.736 193.204C337.153 154.495 363.872 115.992 390.36 77.335C391.247 76.016 392.187 74.743 393.132 73.47H393.136ZM496.134 73.515C501.415 73.071 506.715 73.38 512.002 73.354V193.294C506.709 193.275 501.408 193.583 496.134 193.133C496.102 153.266 496.096 113.387 496.134 73.514V73.515Z"/>
</svg>
