<svg width="512" height="256" viewBox="0 0 512 256" fill="none"
  xmlns="http://www.w3.org/2000/svg">
  <path d="M70.6687 146.49C71.7507 147.932 73.5537 149.014 75.3567 149.375C79.3227 149.736 82.9287 147.212 83.2897 143.245C83.6507 139.278 81.1267 135.673 77.1597 135.312H76.0777L69.5877 134.591L69.2267 139.639V141.081C68.8657 142.884 69.5877 145.047 70.6687 146.49Z"/>
  <path d="M106.725 112.237L76.4377 81.9503L71.3897 123.054L77.8797 123.775H78.9617C89.0577 124.857 96.2687 134.232 95.1867 144.327C94.1047 154.422 84.7297 161.634 74.6347 160.553C64.5387 159.111 57.3277 150.096 58.4097 140.001V138.559L59.1307 132.79L45.0687 130.987L39.2997 176.778L40.7417 178.22C49.3957 186.874 63.4567 186.874 72.1107 178.22L106.725 143.606C115.378 134.952 115.378 120.891 106.725 112.237V112.237Z"/>
  <path d="M33.8908 129.544L24.5167 128.462C21.2717 128.101 19.1077 125.217 19.4688 121.972C19.8298 118.727 22.7137 116.563 25.5987 116.924L34.9727 118.006L37.4967 99.9773C37.8577 96.7323 40.7418 94.5683 43.6268 94.9293C46.8718 95.2903 49.0357 98.1743 48.6747 101.059L46.5117 119.447L60.5737 121.25L66.7038 73.2953C58.4108 69.3293 47.9547 70.4103 41.1037 77.2613L6.48975 111.875C-2.16325 120.529 -2.16325 134.59 6.48975 143.244L29.5658 166.32L33.8927 129.542L33.8908 129.544Z"/>
  <path d="M156.843 132.068V147.572H148.55V108.27H156.843V123.774H179.198V108.27H187.491V147.572H179.198V132.068H156.843ZM222.105 108.271C225.35 108.271 228.235 109.353 230.398 111.877C232.561 114.04 234.004 116.925 234.004 120.17V147.572H225.711V136.394H203.356V147.572H195.063V120.169C195.063 116.924 196.145 114.039 198.669 111.876C200.832 109.713 203.717 108.27 206.962 108.27H222.105V108.271ZM225.711 120.17C225.711 119.088 225.35 118.367 224.629 117.646C223.908 116.925 223.187 116.564 222.105 116.564H206.601C205.519 116.564 204.798 116.925 204.077 117.646C203.356 118.367 202.995 119.088 202.995 120.17V127.742H225.35V120.17H225.711ZM314.409 108.271C317.654 108.271 320.539 109.353 322.702 111.877C324.865 114.04 326.308 116.925 326.308 120.17V147.572H318.015V136.394H295.66V147.572H287.367V120.169C287.367 116.924 288.449 114.039 290.973 111.876C293.136 109.713 296.021 108.27 299.266 108.27H314.41L314.409 108.271ZM318.015 120.17C318.015 119.088 317.654 118.367 316.933 117.646C316.212 116.925 315.491 116.564 314.409 116.564H298.905C297.823 116.564 297.102 116.925 296.381 117.646C295.66 118.367 295.299 119.088 295.299 120.17V127.742H317.654V120.17H318.015ZM361.283 108.271C364.528 108.271 367.413 109.353 369.576 111.877C371.739 114.04 373.182 116.925 373.182 120.17C373.182 123.055 372.1 125.579 370.297 127.742C372.1 129.905 373.182 132.43 373.182 135.314C373.182 138.559 372.1 141.444 369.576 143.607C367.413 145.77 364.528 147.213 361.283 147.213H333.881V108.272H361.283V108.271ZM364.888 120.17C364.888 119.088 364.527 118.367 363.806 117.646C363.085 116.925 362.364 116.564 361.282 116.564H342.532V123.415H361.282C362.364 123.415 363.085 123.054 363.806 122.333C364.527 121.972 364.888 121.251 364.888 120.17ZM361.283 132.068H342.533V138.919H361.283C362.365 138.919 363.086 138.558 363.807 137.837C364.528 137.116 364.889 136.395 364.889 135.313C364.889 134.231 364.528 133.51 363.807 132.789C363.086 132.428 362.365 132.068 361.283 132.068ZM392.291 147.572C389.046 147.572 386.161 146.49 383.998 143.966C381.835 141.803 380.392 138.918 380.392 135.673V120.169C380.392 116.924 381.474 114.039 383.998 111.876C386.161 109.713 389.046 108.27 392.291 108.27H407.795C411.04 108.27 413.925 109.352 416.088 111.876C418.251 114.039 419.694 116.924 419.694 120.169V135.673C419.694 138.918 418.612 141.803 416.088 143.966C413.925 146.129 411.04 147.572 407.795 147.572H392.291ZM388.686 135.673C388.686 136.755 389.047 137.476 389.768 138.197C390.489 138.918 391.21 139.279 392.292 139.279H407.796C408.878 139.279 409.599 138.918 410.32 138.197C411.041 137.476 411.402 136.755 411.402 135.673V120.169C411.402 119.087 411.041 118.366 410.32 117.645C409.599 116.924 408.878 116.563 407.796 116.563H392.292C391.21 116.563 390.489 116.924 389.768 117.645C389.047 118.366 388.686 119.087 388.686 120.169V135.673ZM465.847 135.673C465.847 138.918 464.765 141.803 462.241 143.966C460.078 146.129 457.193 147.572 453.948 147.572H438.444C435.199 147.572 432.314 146.49 430.151 143.966C427.988 141.803 426.545 138.918 426.545 135.673V134.952H434.838V135.673C434.838 136.755 435.199 137.476 435.92 138.197C436.641 138.918 437.362 139.279 438.444 139.279H453.948C455.03 139.279 455.751 138.918 456.472 138.197C457.193 137.476 457.554 136.755 457.554 135.673C457.554 134.591 457.193 133.87 456.472 133.149C455.751 132.428 455.03 132.067 453.948 132.067H438.444C435.199 132.067 432.314 130.985 430.151 128.461C427.988 126.298 426.545 123.413 426.545 120.168C426.545 116.923 427.627 114.038 430.151 111.875C432.314 109.712 435.199 108.269 438.444 108.269H453.948C457.193 108.269 460.078 109.351 462.241 111.875C464.404 114.038 465.847 116.923 465.847 120.168V120.889H457.554V120.168C457.554 119.086 457.193 118.365 456.472 117.644C455.751 116.923 455.03 116.562 453.948 116.562H438.444C437.362 116.562 436.641 116.923 435.92 117.644C435.199 118.365 434.838 119.086 434.838 120.168C434.838 121.25 435.199 121.971 435.92 122.692C436.641 123.413 437.362 123.774 438.444 123.774H453.948C457.193 123.774 460.078 124.856 462.241 127.38C464.404 129.543 465.486 132.428 465.847 135.673ZM484.596 147.572C481.351 147.572 478.466 146.49 476.303 143.966C474.14 141.803 472.697 138.918 472.697 135.673V120.169C472.697 116.924 473.779 114.039 476.303 111.876C478.466 109.713 481.351 108.27 484.596 108.27H500.1C503.345 108.27 506.23 109.352 508.393 111.876C510.556 114.039 511.998 116.924 511.998 120.169V135.673C511.998 138.918 510.916 141.803 508.392 143.966C506.229 146.129 503.344 147.572 500.099 147.572H484.595H484.596ZM480.99 135.673C480.99 136.755 481.351 137.476 482.072 138.197C482.793 138.918 483.514 139.279 484.596 139.279H500.1C501.182 139.279 501.903 138.918 502.624 138.197C503.345 137.476 503.706 136.755 503.706 135.673V120.169C503.706 119.087 503.345 118.366 502.624 117.645C501.903 116.924 501.182 116.563 500.1 116.563H484.596C483.514 116.563 482.793 116.924 482.072 117.645C481.351 118.366 480.99 119.087 480.99 120.169V135.673ZM240.855 108.631H249.148L271.503 134.952V108.631H279.796V147.933H271.503L249.148 121.252V147.933H240.855V108.631V108.631Z"/>
</svg>
