<svg width="512" height="256" viewBox="0 0 512 256" fill="none"
  xmlns="http://www.w3.org/2000/svg">
  <path d="M0 66.3306C2.39771 66.4294 5.61066 66.5286 9.63881 66.6274C13.7629 66.7263 17.839 66.7757 21.8672 66.7757C26.4708 66.7757 30.9305 66.7263 35.2464 66.6274C39.5622 66.5286 42.6313 66.4792 44.4538 66.4792C57.7847 66.4792 67.7594 69.1989 74.3771 74.639C80.9948 80.0787 84.3035 87.101 84.3035 95.7058C84.3035 99.2665 83.6321 103.025 82.2895 106.981C80.9468 110.839 78.645 114.449 75.3843 117.812C72.2192 121.076 67.8554 123.746 62.2925 125.823C56.7299 127.9 49.7284 128.939 41.2887 128.939H26.6146V125.971H39.8501C45.5086 125.971 49.7764 124.636 52.6536 121.966C55.6268 119.295 57.6412 115.784 58.696 111.432C59.8471 107.08 60.4224 102.382 60.4224 97.3378C60.4224 87.9417 59.0798 80.9194 56.3941 76.2709C53.7088 71.6221 49.1051 69.2977 42.5834 69.2977C38.8429 69.2977 36.3975 70.1388 35.2464 71.8201C34.1914 73.5015 33.6639 76.9136 33.6639 82.0569V154.753C33.6639 158.611 34.0475 161.479 34.8148 163.358C35.5821 165.237 37.0688 166.474 39.2747 167.067C41.4806 167.66 44.7413 168.007 49.0571 168.105V171.369C46.0839 171.271 42.2479 171.172 37.5482 171.073C32.8487 170.974 27.9094 170.924 22.7303 170.924C18.6063 170.924 14.5781 170.974 10.6458 171.073C6.71361 171.172 3.16498 171.271 0 171.369V168.402C3.06907 168.205 5.37088 167.809 6.90541 167.215C8.43994 166.622 9.44701 165.435 9.92653 163.655C10.502 161.874 10.7897 159.204 10.7897 155.643V82.0569C10.7897 78.3974 10.502 75.7267 9.92653 74.0454C9.44701 72.2652 8.392 71.0783 6.76155 70.4846C5.22702 69.7925 2.97317 69.3969 0 69.2977V66.3306Z"/>
  <path d="M132.064 66.0339L167.022 158.907C168.365 162.468 169.852 164.941 171.482 166.325C173.208 167.611 174.743 168.304 176.085 168.402V171.369C173.208 171.172 169.804 171.073 165.871 171.073C162.035 170.974 158.151 170.924 154.218 170.924C149.807 170.924 145.635 170.974 141.702 171.073C137.77 171.073 134.653 171.172 132.351 171.369V168.402C137.243 168.205 140.312 167.364 141.558 165.88C142.901 164.298 142.614 160.984 140.695 155.94L116.239 86.9528L118.828 83.0953L96.9611 141.846C94.2758 149.165 92.9328 154.704 92.9328 158.462C93.0287 162.221 94.2278 164.792 96.5293 166.177C98.8312 167.463 101.9 168.205 105.737 168.402V171.369C102.572 171.172 99.5505 171.073 96.6732 171.073C93.796 170.974 90.8708 170.924 87.8976 170.924C85.7877 170.924 83.7737 170.974 81.8553 171.073C80.0332 171.073 78.4027 171.172 76.9641 171.369V168.402C78.9781 168.007 81.0404 166.672 83.1504 164.397C85.2603 162.122 87.3223 158.264 89.3363 152.825L122.137 66.0339C123.672 66.1331 125.302 66.1825 127.028 66.1825C128.851 66.1825 130.529 66.1331 132.064 66.0339ZM142.134 128.642V131.609H99.263L100.702 128.642H142.134Z"/>
  <path d="M257.603 66.3306C257.219 71.3751 256.932 76.2215 256.74 80.87C256.644 85.5184 256.596 89.0792 256.596 91.5518C256.596 93.728 256.644 95.805 256.74 97.7832C256.836 99.761 256.932 101.443 257.028 102.827H253.719C252.184 94.5189 250.218 87.9417 247.82 83.0952C245.519 78.2488 242.737 74.8366 239.477 72.8584C236.216 70.7814 232.379 69.7431 227.967 69.7431H224.659V154.457C224.659 158.413 225.042 161.38 225.809 163.358C226.673 165.336 228.207 166.671 230.413 167.364C232.619 167.957 235.832 168.303 240.052 168.402V171.369C237.079 171.271 233.098 171.172 228.111 171.073C223.22 170.974 218.089 170.924 212.718 170.924C207.443 170.924 202.456 170.974 197.756 171.073C193.057 171.172 189.268 171.271 186.391 171.369V168.402C190.707 168.303 193.968 167.957 196.174 167.364C198.379 166.671 199.866 165.336 200.633 163.358C201.401 161.38 201.784 158.413 201.784 154.457V69.7431H198.619C194.208 69.7431 190.371 70.7814 187.11 72.8584C183.849 74.8366 181.068 78.2488 178.766 83.0952C176.464 87.8429 174.45 94.4201 172.724 102.827H169.415C169.607 101.443 169.703 99.761 169.703 97.7832C169.799 95.805 169.847 93.728 169.847 91.5518C169.847 89.0792 169.751 85.5184 169.559 80.87C169.463 76.2215 169.223 71.3751 168.84 66.3306C173.252 66.4294 178.047 66.5286 183.226 66.6274C188.501 66.7263 193.776 66.7757 199.051 66.7757C204.326 66.7757 209.073 66.7757 213.293 66.7757C217.609 66.7757 222.357 66.7757 227.536 66.7757C232.811 66.7757 238.086 66.7263 243.361 66.6274C248.636 66.5286 253.383 66.4294 257.603 66.3306Z"/>
  <path d="M266.231 66.3306C268.628 66.4294 271.841 66.5286 275.87 66.6274C279.993 66.7263 284.069 66.7757 288.098 66.7757C292.701 66.7757 297.161 66.7263 301.477 66.6274C305.793 66.5286 308.862 66.4792 310.684 66.4792C324.015 66.4792 333.99 68.7539 340.608 73.3035C347.226 77.7543 350.534 84.0845 350.534 92.2937C350.534 95.6564 349.863 99.0689 348.52 102.53C347.178 105.893 344.876 109.058 341.615 112.026C338.45 114.894 334.086 117.218 328.523 118.999C322.96 120.68 315.959 121.521 307.519 121.521H293.708V118.554H306.08C311.739 118.554 316.007 117.465 318.884 115.29C321.858 113.015 323.872 110.048 324.927 106.388C326.077 102.629 326.653 98.4753 326.653 93.9256C326.653 86.1121 325.31 80.0787 322.625 75.8259C319.94 71.4739 315.336 69.2977 308.814 69.2977C305.074 69.2977 302.628 70.1388 301.477 71.8201C300.422 73.5015 299.895 76.9136 299.895 82.0569V155.643C299.895 159.204 300.134 161.874 300.614 163.655C301.189 165.435 302.244 166.622 303.779 167.215C305.313 167.809 307.615 168.205 310.684 168.402V171.369C308.095 171.172 304.834 171.073 300.901 171.073C296.969 170.974 292.989 170.924 288.961 170.924C284.357 170.924 279.993 170.974 275.87 171.073C271.841 171.073 268.628 171.172 266.231 171.369V168.402C269.299 168.205 271.601 167.809 273.136 167.215C274.67 166.622 275.678 165.435 276.157 163.655C276.732 161.874 277.02 159.204 277.02 155.643V82.0569C277.02 78.3974 276.732 75.7267 276.157 74.0454C275.678 72.2652 274.622 71.0783 272.992 70.4846C271.458 69.7925 269.204 69.3969 266.231 69.2977V66.3306ZM293.421 118.999C297.545 119.097 301.093 119.295 304.066 119.592C307.136 119.889 309.821 120.186 312.123 120.482C314.425 120.68 316.487 120.828 318.309 120.927C327.037 121.718 333.462 123.647 337.587 126.713C341.807 129.779 344.54 134.378 345.787 140.511L349.096 155.792C349.959 159.748 350.87 162.518 351.829 164.1C352.788 165.682 354.179 166.474 356.001 166.474C357.248 166.375 358.253 166.078 359.023 165.583C359.886 164.99 360.795 164.149 361.755 163.061L363.771 164.842C361.178 167.908 358.4 170.084 355.425 171.369C352.452 172.754 348.856 173.446 344.636 173.446C339.457 173.446 335.189 172.309 331.832 170.034C328.475 167.759 326.269 163.556 325.214 157.424L322.625 142.588C321.953 138.433 321.138 134.824 320.179 131.757C319.22 128.592 317.877 126.12 316.151 124.34C314.521 122.46 312.219 121.521 309.246 121.521H293.708L293.421 118.999Z"/>
  <path d="M410.291 66.3306V69.2977C407.222 69.3969 404.874 69.7925 403.245 70.4846C401.709 71.0783 400.702 72.2652 400.223 74.0454C399.743 75.7267 399.503 78.3974 399.503 82.0569V155.643C399.503 159.204 399.743 161.874 400.223 163.655C400.796 165.435 401.852 166.622 403.388 167.215C404.92 167.809 407.222 168.205 410.291 168.402V171.369C407.702 171.172 404.44 171.073 400.509 171.073C396.578 170.974 392.596 170.924 388.568 170.924C383.871 170.924 379.506 170.974 375.478 171.073C371.544 171.073 368.332 171.172 365.84 171.369V168.402C368.908 168.205 371.211 167.809 372.743 167.215C374.279 166.622 375.285 165.435 375.765 163.655C376.341 161.874 376.628 159.204 376.628 155.643V82.0569C376.628 78.3974 376.341 75.7267 375.765 74.0454C375.285 72.2652 374.229 71.0783 372.6 70.4846C371.064 69.7925 368.812 69.3969 365.84 69.2977V66.3306C368.332 66.4294 371.544 66.5286 375.478 66.6274C379.506 66.7263 383.871 66.7757 388.568 66.7757C392.596 66.7757 396.578 66.7263 400.509 66.6274C404.44 66.5286 407.702 66.4294 410.291 66.3306Z"/>
  <path d="M467.979 66.0339L502.938 158.907C504.281 162.468 505.767 164.941 507.396 166.325C509.121 167.611 510.657 168.304 512 168.402V171.369C509.121 171.172 505.716 171.073 501.785 171.073C497.951 170.974 494.066 170.924 490.134 170.924C485.72 170.924 481.549 170.974 477.617 171.073C473.686 171.073 470.567 171.172 468.265 171.369V168.402C473.156 168.205 476.225 167.364 477.474 165.88C478.817 164.298 478.527 160.984 476.611 155.94L452.153 86.9528L454.742 83.0953L432.876 141.846C430.191 149.165 428.848 154.704 428.848 158.462C428.942 162.221 430.141 164.792 432.443 166.177C434.745 167.463 437.814 168.205 441.652 168.402V171.369C438.487 171.172 435.465 171.073 432.586 171.073C429.711 170.974 426.786 170.924 423.811 170.924C421.702 170.924 419.69 170.974 417.771 171.073C415.948 171.073 414.316 171.172 412.88 171.369V168.402C414.892 168.007 416.954 166.672 419.063 164.397C421.176 162.122 423.238 158.264 425.25 152.825L458.05 66.0339C459.586 66.1331 461.215 66.1825 462.941 66.1825C464.764 66.1825 466.443 66.1331 467.979 66.0339ZM478.047 128.642V131.609H435.179L436.614 128.642H478.047Z"/>
  <path d="M73.3338 199.635C72.1734 199.703 71.337 199.839 70.825 200.044C70.313 200.249 69.9546 200.641 69.7498 201.22C69.579 201.8 69.4938 202.738 69.4938 204.033V229.403C69.4938 230.699 69.579 231.637 69.7498 232.216C69.9546 232.796 70.313 233.188 70.825 233.393C71.337 233.597 72.1734 233.734 73.3338 233.802V234.825C71.6614 234.723 69.067 234.671 65.5514 234.671C62.1038 234.671 59.4246 234.723 57.513 234.825V233.802C58.6394 233.734 59.4586 233.597 59.9706 233.393C60.5166 233.188 60.875 232.796 61.0458 232.216C61.2506 231.637 61.353 230.699 61.353 229.403V217.127H47.785V229.403C47.785 230.699 47.8702 231.637 48.041 232.216C48.2458 232.796 48.6042 233.188 49.1162 233.393C49.6282 233.597 50.4646 233.734 51.625 233.802V234.825C49.7818 234.723 47.2046 234.671 43.8938 234.671C40.2414 234.671 37.545 234.723 35.8042 234.825V233.802C36.9306 233.734 37.7498 233.597 38.2618 233.393C38.8078 233.188 39.1662 232.796 39.337 232.216C39.5418 231.637 39.6442 230.699 39.6442 229.403V204.033C39.6442 202.738 39.5418 201.8 39.337 201.22C39.1662 200.641 38.8078 200.249 38.2618 200.044C37.7498 199.839 36.9306 199.703 35.8042 199.635V198.612C37.545 198.714 40.2414 198.765 43.8938 198.765C47.2046 198.765 49.7818 198.714 51.625 198.612V199.635C50.4646 199.703 49.6282 199.839 49.1162 200.044C48.6042 200.249 48.2458 200.641 48.041 201.22C47.8702 201.8 47.785 202.738 47.785 204.033V216.104H61.353V204.033C61.353 202.738 61.2506 201.8 61.0458 201.22C60.875 200.641 60.5166 200.249 59.9706 200.044C59.4586 199.839 58.6394 199.703 57.513 199.635V198.612C59.4246 198.714 62.1038 198.765 65.5514 198.765C69.067 198.765 71.6614 198.714 73.3338 198.612V199.635Z"/>
  <path d="M161.5 197.896C165.118 197.896 168.275 198.629 170.972 200.095C173.703 201.561 175.819 203.693 177.321 206.489C178.823 209.25 179.573 212.558 179.573 216.411C179.573 220.162 178.805 223.487 177.269 226.386C175.733 229.284 173.583 231.535 170.818 233.137C168.087 234.74 164.964 235.541 161.449 235.541C157.831 235.541 154.656 234.808 151.925 233.342C149.229 231.875 147.13 229.761 145.628 226.999C144.126 224.203 143.375 220.879 143.375 217.025C143.375 213.274 144.143 209.95 145.679 207.051C147.215 204.153 149.348 201.902 152.079 200.299C154.844 198.697 157.984 197.896 161.5 197.896ZM161.295 198.816C159.418 198.816 157.762 199.583 156.329 201.118C154.895 202.618 153.786 204.732 153.001 207.46C152.25 210.188 151.874 213.309 151.874 216.821C151.874 220.367 152.301 223.487 153.154 226.181C154.042 228.875 155.219 230.955 156.687 232.421C158.189 233.887 159.844 234.621 161.653 234.621C163.531 234.621 165.186 233.87 166.62 232.37C168.053 230.835 169.146 228.704 169.897 225.976C170.682 223.248 171.074 220.128 171.074 216.616C171.074 213.07 170.631 209.95 169.743 207.256C168.89 204.562 167.712 202.482 166.21 201.015C164.743 199.549 163.104 198.816 161.295 198.816Z"/>
  <path d="M281.204 198.612C280.965 201.851 280.845 204.75 280.845 207.307C280.845 208.91 280.896 210.205 280.999 211.194H279.821C279.002 207 277.876 204.051 276.442 202.346C275.043 200.641 273.114 199.788 270.656 199.788H269.479V228.994C269.479 230.426 269.616 231.466 269.888 232.114C270.196 232.762 270.708 233.205 271.424 233.444C272.176 233.649 273.353 233.768 274.957 233.802V234.825C270.656 234.723 267.414 234.671 265.229 234.671C263.079 234.671 259.956 234.723 255.86 234.825V233.802C257.464 233.768 258.624 233.649 259.341 233.444C260.092 233.205 260.604 232.762 260.877 232.114C261.184 231.466 261.338 230.426 261.338 228.994V199.788H260.212C258.573 199.788 257.174 200.146 256.013 200.862C254.887 201.578 253.914 202.772 253.095 204.443C252.276 206.079 251.576 208.33 250.996 211.194H249.818C249.92 210.205 249.972 208.91 249.972 207.307C249.972 204.75 249.852 201.851 249.613 198.612C252.72 198.714 257.993 198.765 265.434 198.765C272.875 198.765 278.132 198.714 281.204 198.612Z"/>
  <path d="M378.891 227.051C378.891 230.188 379.012 232.779 379.249 234.825C376.929 234.723 373.022 234.671 367.527 234.671C360.083 234.671 354.521 234.723 350.834 234.825V233.802C351.961 233.734 352.78 233.597 353.292 233.393C353.838 233.188 354.196 232.796 354.367 232.216C354.572 231.637 354.674 230.699 354.674 229.403V204.033C354.674 202.738 354.572 201.8 354.367 201.22C354.196 200.641 353.838 200.249 353.292 200.044C352.78 199.839 351.961 199.703 350.834 199.635V198.612C354.521 198.714 360.083 198.765 367.527 198.765C372.543 198.765 376.109 198.714 378.225 198.612C377.988 201.442 377.867 203.965 377.867 206.182C377.867 207.682 377.92 208.842 378.021 209.66H376.843C376.331 206.011 375.411 203.454 374.079 201.988C372.747 200.521 370.871 199.788 368.447 199.788H366.349C365.289 199.788 364.523 199.873 364.043 200.044C363.567 200.214 363.241 200.555 363.072 201.067C362.901 201.544 362.815 202.328 362.815 203.42V216.104H364.454C366.263 216.104 367.627 215.44 368.55 214.11C369.506 212.78 370.172 211.194 370.545 209.353H371.723C371.622 210.785 371.569 212.388 371.569 214.161V216.616C371.569 218.355 371.673 220.776 371.877 223.879H370.699C369.983 219.378 367.902 217.127 364.454 217.127H362.815V230.017C362.815 231.108 362.901 231.91 363.072 232.421C363.241 232.898 363.567 233.222 364.043 233.393C364.523 233.563 365.289 233.649 366.349 233.649H368.858C371.279 233.649 373.227 232.83 374.694 231.193C376.195 229.523 377.255 226.709 377.867 222.754H379.045C378.944 223.879 378.891 225.312 378.891 227.051Z"/>
  <path d="M465.974 199.635C464.742 199.703 463.84 199.839 463.26 200.044C462.712 200.249 462.336 200.641 462.132 201.22C461.928 201.8 461.824 202.738 461.824 204.033V230.017C461.824 231.108 461.91 231.91 462.082 232.421C462.25 232.898 462.54 233.222 462.952 233.393C463.396 233.563 464.094 233.649 465.05 233.649H467.56C469.88 233.649 471.878 232.609 473.55 230.529C475.258 228.449 476.364 225.686 476.876 222.242H478.054C477.954 223.402 477.9 224.902 477.9 226.744C477.9 230.017 478.022 232.711 478.262 234.825C475.938 234.723 472.032 234.671 466.536 234.671C459.096 234.671 453.532 234.723 449.844 234.825V233.802C450.972 233.734 451.788 233.597 452.3 233.393C452.848 233.188 453.206 232.796 453.378 232.216C453.582 231.637 453.686 230.699 453.686 229.403V204.033C453.686 202.738 453.582 201.8 453.378 201.22C453.206 200.641 452.848 200.249 452.3 200.044C451.788 199.839 450.972 199.703 449.844 199.635V198.612C451.584 198.714 454.28 198.765 457.932 198.765C461.416 198.765 464.094 198.714 465.974 198.612V199.635Z"/>
  <path d="M196.617 40.5538L205.279 45.5744L202.98 36.1119L210.632 29.7452L200.555 28.9241L196.617 20L192.678 28.9241L182.601 29.7452L190.254 36.1119L187.955 45.5744L196.617 40.5538Z"/>
  <path d="M254.281 40.5538L262.943 45.5744L260.644 36.1119L268.297 29.7452L258.22 28.9241L254.281 20L250.343 28.9241L240.266 29.7452L247.918 36.1119L245.619 45.5744L254.281 40.5538Z"/>
  <path d="M311.946 40.5538L320.607 45.5744L318.309 36.1119L325.961 29.7452L315.884 28.9241L311.946 20L308.007 28.9241L297.93 29.7452L305.583 36.1119L303.284 45.5744L311.946 40.5538Z"/>
</svg>
