<svg width="512" height="256" viewBox="0 0 512 256" fill="none"
  xmlns="http://www.w3.org/2000/svg">
  <path d="M273.674 188.505H255.345V68.429H273.674V188.505ZM340.297 188.505H322.292V125.728L305.43 126.052V188.664H287.589V111.079H305.43V113.98C309.526 113.331 313.781 112.688 317.872 112.046C322.947 111.238 327.202 110.754 330.473 110.754C337.021 110.754 340.298 113.974 340.298 120.254V188.492L340.297 188.505ZM387.111 188.505H367.302C360.76 188.505 357.318 185.285 357.318 178.845V126.052H348.972V111.084H357.318V90.001H375.159V111.084H386.616V126.052H375.159V173.696H387.106V188.499L387.111 188.505ZM447.999 179.005C447.999 185.445 444.563 188.665 437.85 188.665H407.073C400.366 188.665 396.93 185.445 396.93 179.005V120.58C396.93 114.146 400.201 110.926 407.079 110.926H437.856C444.563 110.926 447.999 114.146 447.999 120.58V149.07L443.09 153.9H414.116V175.631H430.978V162.751H447.999V179.004V179.005ZM430.978 142.471V123.959H414.116V142.471H430.978ZM511.999 179.005C511.999 185.445 508.563 188.665 501.85 188.665H471.073C464.366 188.665 460.93 185.445 460.93 179.005V120.58C460.93 114.146 464.201 110.926 471.079 110.926H501.856C508.563 110.926 511.999 114.146 511.999 120.58V149.07L507.09 153.9H478.116V175.631H494.978V162.751H511.999V179.004V179.005ZM494.813 142.471V123.959H477.951V142.471H494.813Z"/>
  <path d="M198.598 128.305C198.598 183.151 154.145 227.61 99.299 227.61C44.458 227.61 0 183.157 0 128.305C0 73.464 44.459 29 99.299 29C154.139 29 198.604 73.459 198.604 128.305H198.598ZM107.507 168.867L85.298 203.148L117.486 166.131C129.233 152.773 125.854 131.85 110.404 122.998L99.299 116.558C86.908 109.475 83.205 93.217 91.09 81.309C97.205 72.133 104.931 62.638 113.14 53.303C99.455 63.994 87.507 75.894 77.109 89.075L76.771 89.519C66.469 102.552 70.172 121.707 84.491 130.24L100.75 139.894C110.728 145.85 113.948 159.048 107.508 168.868L107.507 168.867Z"/>
</svg>
