<svg width="512" height="256" viewBox="0 0 512 256" fill="none"
  xmlns="http://www.w3.org/2000/svg">
  <path d="M39.3459 124.095L39.1779 124.067L28.2562 154.256H22.7674L11.9017 124.179L11.7337 124.207L12.5179 142.102V148.515L16.8865 149.355V154.256H0V149.355L4.34064 148.515V119.251L0 118.41V113.482H15.0102L25.3998 143.53H25.5678L36.0414 113.482H51.1076V118.41L46.739 119.251V148.515L51.1076 149.355V154.256H34.2211V149.355L38.5617 148.515V142.102L39.3459 124.095Z"/>
  <path d="M53.6281 149.355L56.5405 148.935L68.9463 113.482H77.3196L89.6414 148.935L92.5538 149.355V154.256H78.6638V149.355L81.4922 148.851L79.6999 143.25H66.482L64.6897 148.851L67.5181 149.355V154.256H53.6281V149.355ZM68.4143 137.229H77.7676L73.175 122.863H73.007L68.4143 137.229Z"/>
  <path d="M126.243 126.504H120.11L119.046 120.903C118.336 120.455 117.3 120.063 115.937 119.727C114.574 119.391 113.128 119.223 111.597 119.223C109.356 119.223 107.62 119.699 106.388 120.651C105.174 121.584 104.568 122.798 104.568 124.291C104.568 125.673 105.202 126.812 106.472 127.708C107.76 128.585 109.972 129.519 113.109 130.508C117.608 131.759 121.016 133.411 123.33 135.465C125.664 137.519 126.831 140.216 126.831 143.558C126.831 147.049 125.45 149.803 122.686 151.819C119.924 153.836 116.283 154.844 111.765 154.844C108.535 154.844 105.613 154.33 102.999 153.304C100.404 152.277 98.2386 150.858 96.5023 149.047V140.534H102.831L103.699 146.331C104.521 147.003 105.632 147.563 107.032 148.011C108.451 148.44 110.028 148.655 111.765 148.655C114.005 148.655 115.704 148.198 116.861 147.283C118.038 146.368 118.626 145.145 118.626 143.614C118.626 142.046 118.066 140.786 116.945 139.834C115.844 138.881 113.902 137.985 111.121 137.145C106.285 135.745 102.626 134.083 100.143 132.16C97.6599 130.237 96.4183 127.605 96.4183 124.263C96.4183 120.959 97.8186 118.261 100.619 116.17C103.419 114.06 106.939 112.978 111.177 112.922C114.313 112.922 117.169 113.398 119.746 114.35C122.323 115.302 124.488 116.571 126.243 118.158V126.504ZM110.897 105.921L114.593 102H121.538V102.476L113.697 109.617H108.096L100.227 102.448V102H107.2L110.897 105.921Z"/>
  <path d="M130.024 118.41V113.482H146.91V118.41L142.541 119.251V148.515L146.91 149.355V154.256H130.024V149.355L134.392 148.515V119.251L130.024 118.41ZM138.649 103.148H147.302L147.358 103.316L139.629 110.597H133.077L138.649 103.148Z"/>
  <path d="M191.717 113.482V118.41L187.348 119.251V154.256H179.199L162.733 126.812L162.564 126.84V148.515L166.932 149.355V154.256H150.047V149.355L154.387 148.515V119.251L150.047 118.41V113.482H162.564L179.03 140.926L179.199 140.898V119.251L174.83 118.41V113.482H191.717Z"/>
  <path d="M210.759 113.482V118.41L206.391 119.251V140.534C206.391 143.222 207.109 145.238 208.548 146.583C210.003 147.908 211.991 148.571 214.512 148.571C217.069 148.571 219.077 147.908 220.533 146.583C221.99 145.257 222.717 143.241 222.717 140.534V119.251L218.376 118.41V113.482H235.263V118.41L230.895 119.251V140.534C230.895 145.108 229.382 148.636 226.358 151.119C223.352 153.602 219.404 154.844 214.512 154.844C209.64 154.844 205.7 153.602 202.694 151.119C199.707 148.636 198.213 145.108 198.213 140.534V119.251L193.873 118.41V113.482H210.759Z"/>
  <path d="M251.981 118.41L248.874 118.971L256.098 143.418L256.602 145.659H256.77L257.246 143.474L264.5 118.971L261.42 118.41V113.482H276.317V118.41L272.901 118.858L260.887 154.256H252.486L240.444 118.858L237.083 118.41V113.482H251.981V118.41Z"/>
  <path d="M323.841 126.504H317.708L316.643 120.903C315.934 120.455 314.897 120.063 313.535 119.727C312.172 119.391 310.725 119.223 309.194 119.223C306.954 119.223 305.218 119.699 303.986 120.651C302.772 121.584 302.165 122.798 302.165 124.291C302.165 125.673 302.799 126.812 304.07 127.708C305.358 128.585 307.57 129.519 310.707 130.508C315.205 131.759 318.613 133.411 320.928 135.465C323.261 137.519 324.429 140.216 324.429 143.558C324.429 147.049 323.047 149.803 320.284 151.819C317.521 153.836 313.88 154.844 309.363 154.844C306.132 154.844 303.21 154.33 300.597 153.304C298.002 152.277 295.836 150.858 294.1 149.047V140.534H300.429L301.298 146.331C302.118 147.003 303.23 147.563 304.63 148.011C306.048 148.44 307.625 148.655 309.363 148.655C311.603 148.655 313.301 148.198 314.459 147.283C315.636 146.368 316.223 145.145 316.223 143.614C316.223 142.046 315.663 140.786 314.542 139.834C313.442 138.881 311.5 137.985 308.719 137.145C303.883 135.745 300.223 134.083 297.74 132.16C295.258 130.238 294.016 127.605 294.016 124.263C294.016 120.959 295.416 118.261 298.216 116.17C301.017 114.06 304.537 112.978 308.774 112.922C311.91 112.922 314.767 113.398 317.343 114.35C319.919 115.302 322.085 116.571 323.841 118.158V126.504Z"/>
  <path d="M363.55 113.482V124.347H357.277L356.941 119.783H349.436V148.515L353.805 149.355V154.256H336.891V149.355L341.259 148.515V119.783H333.782L333.446 124.347H327.2V113.482H363.55Z"/>
  <path d="M360.778 149.355L363.69 148.935L376.096 113.482H384.469L396.791 148.935L399.704 149.355V154.256H385.814V149.355L388.642 148.851L386.85 143.25H373.632L371.84 148.851L374.668 149.355V154.256H360.778V149.355ZM375.564 137.229H384.918L380.325 122.863H380.157L375.564 137.229Z"/>
  <path d="M434.121 113.482V124.347H427.848L427.511 119.783H420.006V148.515L424.375 149.355V154.256H407.461V149.355L411.829 148.515V119.783H404.353L404.016 124.347H397.772V113.482H434.121Z"/>
  <path d="M463.133 136.333H449.327V147.983H462.489L462.854 143.11H469.07V154.256H436.81V149.355L441.149 148.515V119.251L436.81 118.41V113.482H469.014V124.655H462.741L462.377 119.783H449.327V130.032H463.133V136.333Z"/>
  <path d="M473.439 149.355L477.78 148.515V119.251L473.439 118.41V113.482H490.101V118.41L485.956 119.251V130.144H489.513L497.354 118.746L494.946 118.41V113.482H511.104V118.41L506.679 119.167L496.655 132.552L507.911 148.655L512 149.355V154.256H495.842V149.355L498.362 149.019L490.521 137.229H485.956V148.515L490.101 149.355V154.256H473.439V149.355Z"/>
</svg>
