<svg width="520" height="256" viewBox="0 0 520 256" fill="none"
  xmlns="http://www.w3.org/2000/svg">
  <path d="M37.8696 106.91C41.0249 115.208 39.4482 110.997 42.7238 119.541C49.0344 136.509 46.971 131.061 49.0344 136.26C52.9189 127.22 53.8905 124.868 56.1926 119.17C57.8934 114.835 54.614 123.505 66.6302 92.5459C67.6018 89.9441 68.5695 88.7072 69.9057 88.2109C70.5127 87.8425 71.2419 87.7146 71.9692 87.7146H87.261C94.1786 87.7146 93.814 87.7146 95.0281 88.3331C96.3642 88.9535 97.0915 90.3164 97.0915 91.9255C97.0915 94.031 96.2421 94.8995 92.7222 96.0105C90.2941 96.879 89.5668 98.1197 89.5668 101.71V104.56C89.6871 106.169 89.6871 107.532 89.6871 108.647V149.515V153.728C89.8093 155.832 89.8093 157.317 89.8093 157.933C89.8093 160.783 90.4163 161.65 92.7203 162.643L93.9343 163.261C95.1483 163.757 96.118 165.118 96.118 166.479C96.118 167.722 95.1483 169.207 93.9343 169.701C93.2051 170.072 92.3557 170.316 91.5062 170.316H79.9768H76.2164C66.7485 170.316 66.9909 170.316 65.7769 169.451C64.8053 168.707 64.1983 167.472 64.1983 166.477C64.1983 165.116 64.9275 164 66.3839 163.259L67.3555 162.641C69.9019 161.276 70.1443 160.907 70.1443 157.931C70.1443 156.817 70.2665 155.458 70.2665 153.726V149.513L70.1443 107.156L69.2949 109.139C68.5657 110.997 67.8404 113.104 67.8404 113.104C60.434 132.792 61.8924 129.075 54.488 146.91C49.0287 160.287 49.5135 159.669 43.6897 159.669C38.8336 159.669 37.6214 158.926 35.6782 154.467C31.9178 146.047 29.1252 139.603 27.5465 135.394C16.7482 108.149 20.2662 117.065 16.7482 108.395L16.3836 149.884C16.2615 158.924 16.8704 161.03 19.6592 162.268C23.5437 163.878 24.271 164.498 24.271 166.727C24.271 168.957 22.4499 170.44 19.7814 170.44H9.58813C2.42805 170.314 3.27558 170.44 2.06346 169.948C0.72918 169.201 0 167.961 0 166.475C0 164.37 0.849436 163.502 4.12692 162.387C6.79549 161.524 6.67523 162.387 7.03791 149.632L7.52276 108.515L7.64302 106.036V101.084C7.64302 96.7492 7.27843 96.2548 3.1515 95.0121C1.33428 94.5177 0.240515 93.2808 0.240515 91.6717C0.240515 89.9384 1.69887 88.3274 3.88259 87.957C4.85419 87.8368 6.18848 87.7089 7.88735 87.7089H15.412C31.7937 87.7089 29.9746 87.2107 32.5229 92.9124C32.647 93.4087 32.8894 94.0253 33.1299 94.5196L35.4358 100.714L37.8696 106.91ZM154.546 143.319C154.546 127.344 142.177 115.328 125.678 115.328C109.633 115.328 96.8128 127.961 96.8128 143.936C96.8128 159.915 108.963 171.679 125.457 171.679C141.842 171.681 154.546 159.296 154.546 143.319ZM114.313 143.319C114.313 130.813 118.661 123.381 125.793 123.381C132.922 123.381 137.047 130.564 137.047 143.197C137.047 156.572 132.922 163.879 125.568 163.879C118.326 163.879 114.313 156.448 114.313 143.319ZM210.599 170.32C213.275 170.32 214.722 169.081 214.722 166.729C214.722 165.491 214.052 164.248 213.163 163.755L211.712 162.887C209.71 161.774 209.484 161.028 209.484 153.6V122.517C209.484 117.189 208.146 115.204 204.693 115.204C202.019 115.204 194.437 117.189 190.537 118.802C189.312 119.417 188.422 120.657 188.422 121.896C188.422 123.137 188.978 124 190.205 124.744C192.545 126.229 192.99 127.22 192.99 131.061V151C192.99 158.059 189.312 162.392 183.404 162.392C178.723 162.392 176.606 158.928 176.606 151.373V123.011C176.606 117.437 175.158 115.204 171.256 115.204C170.699 115.204 170.03 115.328 169.584 115.328C160.557 117.309 163.12 116.695 161.784 117.065C156.991 118.3 155.542 119.295 155.542 121.4C155.542 122.517 156.212 123.63 157.548 124.496C159.889 126.105 160.114 126.726 160.114 132.174V152.486C160.114 164.62 166.354 171.805 177.053 171.805C183.631 171.805 188.31 169.575 194.217 163.631C194.775 168.585 196.111 170.32 199.345 170.32H210.599V170.32ZM222.306 153.6C222.306 162.022 222.306 162.144 220.296 163.505L219.294 164.248C218.515 164.746 217.958 165.861 217.958 166.848C217.958 168.335 218.851 169.575 220.298 170.072C220.968 170.318 219.41 170.318 227.991 170.318H231.222C242.257 170.318 240.471 170.436 241.478 169.82C242.479 169.327 243.259 168.088 243.259 166.846C243.259 165.857 242.702 164.742 241.813 164.246L240.807 163.503C238.8 162.268 238.8 162.268 238.8 153.598V137.251C238.8 129.327 242.145 124.868 247.944 124.868C253.403 124.868 255.743 128.333 255.743 136.509V153.6C255.743 162.27 255.743 162.144 253.737 163.505L252.735 164.248C251.844 164.868 251.288 165.861 251.288 166.848C251.288 168.335 252.178 169.575 253.628 170.072C254.298 170.318 252.848 170.318 260.981 170.318H264.102H273.129C273.688 170.318 274.242 170.072 274.801 169.82C275.803 169.327 276.588 168.088 276.588 166.846C276.588 165.857 276.141 164.866 275.248 164.246L274.244 163.503C272.241 162.02 272.241 162.14 272.241 153.598V136.258C272.241 123.009 265.442 115.326 253.518 115.326C246.604 115.326 242.261 117.433 237.019 123.252C236.239 117.433 235.017 115.326 232.448 115.326C230.777 115.326 225.984 116.693 222.863 118.178C218.63 120.159 217.07 121.642 217.07 123.752C217.07 124.866 217.738 125.731 219.298 126.474C221.642 127.713 222.31 129.074 222.31 133.04V153.6H222.306ZM297.984 124.744H305.226C308.015 124.744 309.909 123.011 309.909 120.409C309.909 117.437 308.238 115.952 305.007 115.952H297.539V101.338C297.539 98.1197 296.537 97.2474 292.97 97.2474C288.845 97.2474 287.842 98.24 287.062 102.949C285.613 112.484 283.717 115.58 279.26 116.322C274.02 117.311 273.352 117.932 273.352 120.908C273.352 123.504 274.91 125.241 277.476 125.241H281.488V163.139C281.488 168.961 283.381 170.44 290.406 170.44H293.078L304.003 170.566C308.681 170.566 310.689 169.205 310.689 165.987C310.689 163.139 308.681 161.404 305.677 161.776L304.448 161.898C300.103 162.392 297.982 160.163 297.982 155.209V124.744H297.984ZM336.333 124.744H342.909C345.136 124.744 346.694 122.885 346.694 120.409C346.694 117.557 345.136 115.95 342.571 115.95H335.999V103.812C335.999 98.8623 336.778 95.1419 337.782 95.0217C338.005 95.0217 338.56 95.2698 339.12 95.7642C341.013 97.5013 342.685 98.366 344.358 98.366C347.255 98.366 349.815 95.392 349.815 91.9255C349.815 87.3424 345.358 84 339.007 84C332.431 84 326.745 87.2202 323.626 92.67C320.839 97.3734 319.839 103.319 319.839 113.969V115.952H316.046C314.152 115.952 312.593 117.93 312.593 120.287C312.593 123.137 313.931 124.744 316.38 124.744H319.839V153.6C319.839 161.156 319.724 161.526 317.609 162.887L316.38 163.755C315.267 164.372 314.709 165.489 314.709 166.729C314.709 168.214 315.599 169.575 316.826 169.951C317.829 170.32 317.046 170.32 328.306 170.32C339.118 170.32 338.448 170.32 339.45 169.951C340.679 169.577 341.569 168.216 341.569 166.729C341.569 165.491 340.899 164.374 339.784 163.755L338.557 162.887C336.442 161.65 336.329 161.156 336.329 153.6V124.744H336.333ZM353.041 164.248C352.262 164.746 351.701 165.861 351.701 166.848C351.701 167.842 352.146 168.957 352.93 169.575C353.932 170.32 353.711 170.32 361.068 170.32H364.074H373.658C374.216 170.32 374.775 170.196 375.332 169.822C376.337 169.329 377.117 168.09 377.117 166.848C377.117 165.859 376.558 164.744 375.779 164.248L374.662 163.505C372.658 162.27 372.658 162.022 372.658 153.6V127.84C372.658 118.924 371.32 115.702 367.754 115.702C365.971 115.702 363.631 116.072 361.514 116.823C358.393 117.685 354.828 118.926 353.713 119.417C351.039 120.531 349.924 121.646 349.924 123.137C349.924 124.868 350.258 125.241 353.488 127.098C355.717 128.333 356.164 129.944 356.164 137.251V153.598C356.164 162.268 356.164 162.268 354.156 163.503L353.041 164.248ZM372.99 99.8511C372.99 94.6475 368.865 90.9329 363.07 90.9329C357.611 90.9329 353.264 95.1419 353.264 100.468C353.264 105.175 357.498 109.014 362.847 109.014C368.531 109.012 372.99 104.927 372.99 99.8511ZM410.658 162.641C403.973 162.641 399.178 158.306 397.397 150.75C407.426 149.265 411.438 148.397 415.117 147.286C425.035 144.064 430.385 138.614 430.385 131.309C430.385 122.144 421.582 115.33 409.545 115.33C392.378 115.33 379.23 128.091 379.23 144.934C379.23 160.537 390.819 171.683 407.204 171.683C413.446 171.683 419.24 169.827 424.254 166.233C428.49 163.263 431.39 159.3 431.39 156.7C431.39 155.089 430.051 153.604 428.379 153.604C427.379 153.604 426.375 153.974 425.592 154.719C419.352 160.907 416.008 162.641 410.658 162.641ZM414.557 130.192C414.557 137.501 408.541 141.832 396.618 143.319C397.175 136.509 397.618 134.279 398.733 131.551C400.961 126.353 404.641 123.137 408.541 123.137C412.219 123.137 414.557 125.859 414.557 130.192ZM433.401 163.755C432.508 164.248 431.842 165.489 431.842 166.729C431.842 168.214 432.73 169.575 433.959 169.951C434.961 170.32 434.18 170.32 445.213 170.32C456.247 170.32 455.464 170.32 456.468 169.951C457.695 169.577 458.589 168.216 458.589 166.729C458.589 165.491 458.027 164.374 457.027 163.755L455.798 162.887C453.685 161.526 453.57 161.03 453.57 153.6V95.392C453.57 87.4665 452.568 84.9888 449.558 84.9888C447.775 84.9888 445.435 85.6111 440.863 87.0962C437.742 88.209 435.406 88.9535 434.957 89.0737C432.392 89.8182 431.168 90.9367 431.277 92.544C431.277 93.5328 431.836 94.4032 432.613 94.8957C437.187 97.8697 437.072 97.6196 437.072 106.662V153.598C437.072 161.03 436.851 161.772 434.843 162.885L433.401 163.755ZM498.491 119.044C493.587 116.196 491.024 115.328 486.565 115.328C471.968 115.328 460.711 127.963 460.711 144.312C460.711 159.919 470.851 171.681 484.335 171.681C491.134 171.681 495.37 169.451 499.493 163.879C500.053 168.707 501.055 170.316 503.838 170.316H515.877C518.549 170.316 520 169.081 520 166.729C520 165.491 519.443 164.5 518.328 163.755L517.213 162.887C515.098 161.526 514.984 161.156 514.984 153.6V95.8883C514.984 87.3405 514.094 84.985 511.082 84.985C508.744 84.985 506.407 85.6092 498.266 88.4552L496.37 89.0718C493.698 89.9403 492.694 90.9348 492.694 92.418C492.694 93.4106 493.251 94.3975 494.032 94.8957C498.604 97.9918 498.489 97.6196 498.489 106.908V119.044H498.491ZM498.491 151.369C498.491 157.811 494.479 162.641 489.13 162.641C482.44 162.641 478.32 155.458 478.32 144.062C478.32 131.187 482.556 123.255 489.575 123.255C494.704 123.255 498.491 127.59 498.491 133.536V151.369Z"/>
</svg>
