<svg width="512" height="256" viewBox="0 0 512 256" fill="none"
  xmlns="http://www.w3.org/2000/svg">
  <path d="M68.6939 229.551C68.6939 234.122 67.8231 238.095 66.0816 241.469C64.449 244.735 62.2177 247.456 59.3878 249.633C56.5578 251.81 53.3469 253.388 49.7551 254.367C46.1633 255.456 42.4626 256 38.6531 256C34.6259 256 30.6531 255.401 26.7347 254.204C22.8163 253.116 19.3333 251.483 16.2857 249.306C13.2381 247.02 10.7347 244.245 8.77551 240.98C6.92517 237.605 6 233.796 6 229.551V25.7959C6 21.6599 6.92517 18.0136 8.77551 14.8571C10.7347 11.5918 13.2381 8.87075 16.2857 6.69388C19.4422 4.51701 22.9796 2.88435 26.898 1.79592C30.8163 0.598639 34.7891 0 38.8163 0C42.6259 0 46.3265 0.544218 49.9184 1.63265C53.5102 2.61224 56.6667 4.19048 59.3878 6.36735C62.2177 8.43537 64.449 11.102 66.0816 14.3673C67.8231 17.6327 68.6939 21.4422 68.6939 25.7959V229.551ZM47.7959 25.7959C47.7959 22.0952 46.8707 19.483 45.0204 17.9592C43.2789 16.3265 41.2109 15.5102 38.8163 15.5102C37.4014 15.5102 35.9864 15.7823 34.5714 16.3265C33.1565 16.7619 31.8503 17.4694 30.6531 18.449C29.5646 19.3197 28.6395 20.4082 27.8776 21.7143C27.2245 22.9116 26.898 24.2721 26.898 25.7959V229.551C26.898 231.075 27.2245 232.49 27.8776 233.796C28.6395 235.102 29.5646 236.19 30.6531 237.061C31.8503 237.932 33.102 238.639 34.4082 239.184C35.8231 239.619 37.2381 239.837 38.6531 239.837C41.0476 239.837 43.1701 239.075 45.0204 237.551C46.8707 235.918 47.7959 233.252 47.7959 229.551V25.7959Z"/>
  <path d="M68.6939 229.551C68.6939 234.122 67.8231 238.095 66.0816 241.469C64.449 244.735 62.2177 247.456 59.3878 249.633C56.5578 251.81 53.3469 253.388 49.7551 254.367C46.1633 255.456 42.4626 256 38.6531 256C34.6259 256 30.6531 255.401 26.7347 254.204C22.8163 253.116 19.3333 251.483 16.2857 249.306C13.2381 247.02 10.7347 244.245 8.77551 240.98C6.92517 237.605 6 233.796 6 229.551V25.7959C6 21.6599 6.92517 18.0136 8.77551 14.8571C10.7347 11.5918 13.2381 8.87075 16.2857 6.69388C19.4422 4.51701 22.9796 2.88435 26.898 1.79592C30.8163 0.598639 34.7891 0 38.8163 0C42.6259 0 46.3265 0.544218 49.9184 1.63265C53.5102 2.61224 56.6667 4.19048 59.3878 6.36735C62.2177 8.43537 64.449 11.102 66.0816 14.3673C67.8231 17.6327 68.6939 21.4422 68.6939 25.7959V229.551ZM47.7959 25.7959C47.7959 22.0952 46.8707 19.483 45.0204 17.9592C43.2789 16.3265 41.2109 15.5102 38.8163 15.5102C37.4014 15.5102 35.9864 15.7823 34.5714 16.3265C33.1565 16.7619 31.8503 17.4694 30.6531 18.449C29.5646 19.3197 28.6395 20.4082 27.8776 21.7143C27.2245 22.9116 26.898 24.2721 26.898 25.7959V229.551C26.898 231.075 27.2245 232.49 27.8776 233.796C28.6395 235.102 29.5646 236.19 30.6531 237.061C31.8503 237.932 33.102 238.639 34.4082 239.184C35.8231 239.619 37.2381 239.837 38.6531 239.837C41.0476 239.837 43.1701 239.075 45.0204 237.551C46.8707 235.918 47.7959 233.252 47.7959 229.551V25.7959Z"/>
  <path d="M149.347 117.224H165.02C166.327 117.224 167.306 116.952 167.959 116.408C168.721 115.755 169.265 114.939 169.592 113.959C169.918 112.98 170.082 111.891 170.082 110.694C170.19 109.388 170.245 108.082 170.245 106.776V28.4082C170.245 25.7959 169.864 23.7823 169.102 22.3673C168.449 20.9524 167.306 19.9184 165.673 19.2653C164.041 18.6122 161.864 18.2313 159.143 18.1224C156.531 18.0136 153.265 17.9592 149.347 17.9592V117.224ZM170.245 143.347C170.245 142.041 170.19 140.789 170.082 139.592C170.082 138.286 169.918 137.143 169.592 136.163C169.265 135.184 168.721 134.422 167.959 133.878C167.306 133.224 166.327 132.898 165.02 132.898H149.347V237.388C151.741 237.388 154.19 237.333 156.694 237.224C159.197 237.116 161.429 236.789 163.388 236.245C165.456 235.592 167.088 234.558 168.286 233.143C169.592 231.728 170.245 229.66 170.245 226.939V143.347ZM191.143 106.776C191.143 112 189.782 116.027 187.061 118.857C184.34 121.687 179.986 123.81 174 125.224C179.986 126.422 184.34 128.435 187.061 131.265C189.782 134.095 191.143 138.122 191.143 143.347V226.939C191.143 233.469 189.946 238.531 187.551 242.122C185.156 245.605 182 248.163 178.082 249.796C174.163 251.429 169.701 252.408 164.694 252.735C159.687 252.952 154.571 253.061 149.347 253.061H128.449V2.28571H149.347C155.878 2.28571 161.701 2.44898 166.816 2.77551C172.041 2.9932 176.449 3.91837 180.041 5.55102C183.633 7.18367 186.354 9.79592 188.204 13.3878C190.163 16.8707 191.143 21.8776 191.143 28.4082V106.776Z"/>
  <path d="M149.347 117.224H165.02C166.327 117.224 167.306 116.952 167.959 116.408C168.721 115.755 169.265 114.939 169.592 113.959C169.918 112.98 170.082 111.891 170.082 110.694C170.19 109.388 170.245 108.082 170.245 106.776V28.4082C170.245 25.7959 169.864 23.7823 169.102 22.3673C168.449 20.9524 167.306 19.9184 165.673 19.2653C164.041 18.6122 161.864 18.2313 159.143 18.1224C156.531 18.0136 153.265 17.9592 149.347 17.9592V117.224ZM170.245 143.347C170.245 142.041 170.19 140.789 170.082 139.592C170.082 138.286 169.918 137.143 169.592 136.163C169.265 135.184 168.721 134.422 167.959 133.878C167.306 133.224 166.327 132.898 165.02 132.898H149.347V237.388C151.741 237.388 154.19 237.333 156.694 237.224C159.197 237.116 161.429 236.789 163.388 236.245C165.456 235.592 167.088 234.558 168.286 233.143C169.592 231.728 170.245 229.66 170.245 226.939V143.347ZM191.143 106.776C191.143 112 189.782 116.027 187.061 118.857C184.34 121.687 179.986 123.81 174 125.224C179.986 126.422 184.34 128.435 187.061 131.265C189.782 134.095 191.143 138.122 191.143 143.347V226.939C191.143 233.469 189.946 238.531 187.551 242.122C185.156 245.605 182 248.163 178.082 249.796C174.163 251.429 169.701 252.408 164.694 252.735C159.687 252.952 154.571 253.061 149.347 253.061H128.449V2.28571H149.347C155.878 2.28571 161.701 2.44898 166.816 2.77551C172.041 2.9932 176.449 3.91837 180.041 5.55102C183.633 7.18367 186.354 9.79592 188.204 13.3878C190.163 16.8707 191.143 21.8776 191.143 28.4082V106.776Z"/>
  <path d="M271.796 117.224L274.571 226.939L277.02 117.224L282.245 2.28571H303.143L287.469 253.061H261.347L245.673 2.28571H266.571L271.796 117.224Z"/>
  <path d="M271.796 117.224L274.571 226.939L277.02 117.224L282.245 2.28571H303.143L287.469 253.061H261.347L245.673 2.28571H266.571L271.796 117.224Z"/>
  <path d="M381.184 2.28571V253.061H360.286V2.28571H381.184Z"/>
  <path d="M381.184 2.28571V253.061H360.286V2.28571H381.184Z"/>
  <path d="M506.245 229.551C506.245 234.122 505.374 238.095 503.633 241.469C502 244.735 499.769 247.456 496.939 249.633C494.109 251.81 490.898 253.388 487.306 254.367C483.714 255.456 480.014 256 476.204 256C472.177 256 468.204 255.401 464.286 254.204C460.367 253.116 456.884 251.483 453.837 249.306C450.789 247.02 448.286 244.245 446.327 240.98C444.476 237.605 443.551 233.796 443.551 229.551V25.7959C443.551 21.6599 444.476 18.0136 446.327 14.8571C448.286 11.5918 450.789 8.87075 453.837 6.69388C456.993 4.51701 460.531 2.88435 464.449 1.79592C468.367 0.598639 472.34 0 476.367 0C480.177 0 483.878 0.544218 487.469 1.63265C491.061 2.61224 494.218 4.19048 496.939 6.36735C499.769 8.43537 502 11.102 503.633 14.3673C505.374 17.6327 506.245 21.4422 506.245 25.7959V229.551ZM485.347 25.7959C485.347 22.0952 484.422 19.483 482.571 17.9592C480.83 16.3265 478.762 15.5102 476.367 15.5102C474.952 15.5102 473.537 15.7823 472.122 16.3265C470.707 16.7619 469.401 17.4694 468.204 18.449C467.116 19.3197 466.19 20.4082 465.429 21.7143C464.776 22.9116 464.449 24.2721 464.449 25.7959V229.551C464.449 231.075 464.776 232.49 465.429 233.796C466.19 235.102 467.116 236.19 468.204 237.061C469.401 237.932 470.653 238.639 471.959 239.184C473.374 239.619 474.789 239.837 476.204 239.837C478.599 239.837 480.721 239.075 482.571 237.551C484.422 235.918 485.347 233.252 485.347 229.551V25.7959Z"/>
  <path d="M506.245 229.551C506.245 234.122 505.374 238.095 503.633 241.469C502 244.735 499.769 247.456 496.939 249.633C494.109 251.81 490.898 253.388 487.306 254.367C483.714 255.456 480.014 256 476.204 256C472.177 256 468.204 255.401 464.286 254.204C460.367 253.116 456.884 251.483 453.837 249.306C450.789 247.02 448.286 244.245 446.327 240.98C444.476 237.605 443.551 233.796 443.551 229.551V25.7959C443.551 21.6599 444.476 18.0136 446.327 14.8571C448.286 11.5918 450.789 8.87075 453.837 6.69388C456.993 4.51701 460.531 2.88435 464.449 1.79592C468.367 0.598639 472.34 0 476.367 0C480.177 0 483.878 0.544218 487.469 1.63265C491.061 2.61224 494.218 4.19048 496.939 6.36735C499.769 8.43537 502 11.102 503.633 14.3673C505.374 17.6327 506.245 21.4422 506.245 25.7959V229.551ZM485.347 25.7959C485.347 22.0952 484.422 19.483 482.571 17.9592C480.83 16.3265 478.762 15.5102 476.367 15.5102C474.952 15.5102 473.537 15.7823 472.122 16.3265C470.707 16.7619 469.401 17.4694 468.204 18.449C467.116 19.3197 466.19 20.4082 465.429 21.7143C464.776 22.9116 464.449 24.2721 464.449 25.7959V229.551C464.449 231.075 464.776 232.49 465.429 233.796C466.19 235.102 467.116 236.19 468.204 237.061C469.401 237.932 470.653 238.639 471.959 239.184C473.374 239.619 474.789 239.837 476.204 239.837C478.599 239.837 480.721 239.075 482.571 237.551C484.422 235.918 485.347 233.252 485.347 229.551V25.7959Z"/>
</svg>
