<svg width="512" height="256" viewBox="0 0 512 256" fill="none"
  xmlns="http://www.w3.org/2000/svg">
  <path d="M443.902 189.915C443.902 188.931 444.25 188.097 444.948 187.412C445.658 186.715 446.498 186.366 447.47 186.366C448.441 186.366 449.275 186.715 449.973 187.412C450.67 188.097 451.019 188.931 451.019 189.915C451.019 190.886 450.67 191.714 449.973 192.399C449.275 193.084 448.441 193.427 447.47 193.427C446.498 193.427 445.658 193.084 444.948 192.399C444.25 191.714 443.902 190.886 443.902 189.915Z"/>
  <path d="M458.935 186.814C457.74 184.71 457.142 182.325 457.142 179.66C457.142 176.995 457.74 174.61 458.935 172.506C460.143 170.401 461.805 168.776 463.922 167.63C466.04 166.472 468.418 165.893 471.058 165.893C474.271 165.893 477.067 166.796 479.445 168.602C481.836 170.395 483.312 172.805 483.872 175.831H478.138C477.714 174.286 476.867 173.072 475.597 172.188C474.327 171.304 472.814 170.862 471.058 170.862C469.402 170.862 467.932 171.26 466.65 172.057C465.367 172.842 464.383 173.9 463.698 175.233C463.026 176.565 462.69 178.041 462.69 179.66C462.69 181.279 463.026 182.754 463.698 184.087C464.383 185.419 465.367 186.484 466.65 187.281C467.932 188.066 469.402 188.458 471.058 188.458C472.814 188.458 474.327 188.016 475.597 187.132C476.867 186.248 477.714 185.033 478.138 183.489H483.872C483.312 186.515 481.836 188.931 479.445 190.737C477.067 192.53 474.271 193.427 471.058 193.427C468.418 193.427 466.04 192.854 463.922 191.708C461.805 190.55 460.143 188.919 458.935 186.814Z"/>
  <path d="M489.622 193.053V190.83L503.202 171.049H490.014V166.267H511.44V168.49L497.86 188.271H512V193.053H489.622Z"/>
  <path fill-rule="evenodd" clip-rule="evenodd" d="M471.058 166.893C468.57 166.893 466.359 167.437 464.402 168.508L464.398 168.51C462.447 169.566 460.92 171.058 459.803 173.002C458.703 174.94 458.142 177.151 458.142 179.66C458.142 182.169 458.703 184.38 459.804 186.318C460.92 188.263 462.448 189.761 464.401 190.83C466.357 191.888 468.569 192.427 471.058 192.427C474.072 192.427 476.652 191.59 478.843 189.939C480.71 188.529 481.963 186.723 482.61 184.489H478.864C478.328 185.912 477.427 187.076 476.169 187.952C474.709 188.969 472.99 189.458 471.058 189.458C469.237 189.458 467.583 189.024 466.128 188.134L466.122 188.131C464.687 187.239 463.577 186.039 462.809 184.544L462.806 184.538C462.057 183.054 461.69 181.422 461.69 179.66C461.69 177.898 462.057 176.266 462.806 174.782L462.809 174.776C463.578 173.28 464.688 172.086 466.125 171.206C467.581 170.302 469.235 169.862 471.058 169.862C472.99 169.862 474.709 170.351 476.169 171.367C477.427 172.244 478.328 173.407 478.864 174.831H482.61C481.963 172.599 480.71 170.8 478.845 169.402L478.841 169.398C476.649 167.735 474.07 166.893 471.058 166.893ZM463.445 166.752C465.722 165.507 468.267 164.893 471.058 164.893C474.471 164.893 477.482 165.857 480.048 167.803C482.644 169.752 484.251 172.385 484.856 175.649L485.074 176.831H477.375L477.173 176.095C476.809 174.768 476.097 173.754 475.026 173.009C473.945 172.257 472.638 171.862 471.058 171.862C469.57 171.862 468.287 172.218 467.177 172.907L467.172 172.91C466.046 173.599 465.19 174.52 464.589 175.687C463.994 176.867 463.69 178.185 463.69 179.66C463.69 181.134 463.994 182.453 464.589 183.633C465.19 184.8 466.047 185.728 467.174 186.43C468.284 187.108 469.568 187.458 471.058 187.458C472.638 187.458 473.945 187.063 475.026 186.311C476.097 185.566 476.809 184.552 477.173 183.225L477.375 182.489H485.074L484.856 183.671C484.251 186.936 482.644 189.574 480.048 191.535C477.482 193.469 474.47 194.427 471.058 194.427C468.268 194.427 465.724 193.82 463.447 192.588L463.443 192.586C461.163 191.338 459.367 189.575 458.068 187.312L458.066 187.308C456.776 185.038 456.142 182.48 456.142 179.66C456.142 176.84 456.776 174.282 458.066 172.012L458.068 172.008C459.367 169.744 461.164 167.987 463.445 166.752ZM489.014 165.267H512.44V168.8L499.759 187.271H513V194.053H488.622V190.52L501.302 172.049H489.014V165.267ZM491.014 167.267V170.049H505.101L490.622 191.141V192.053H511V189.271H495.96L510.44 168.179V167.267H491.014ZM447.47 187.366C446.767 187.366 446.177 187.607 445.649 188.125C445.144 188.621 444.902 189.198 444.902 189.915C444.902 190.615 445.14 191.185 445.645 191.683C446.171 192.189 446.763 192.427 447.47 192.427C448.177 192.427 448.76 192.189 449.272 191.686C449.779 191.188 450.019 190.616 450.019 189.915C450.019 189.198 449.776 188.621 449.272 188.125L449.265 188.119C448.752 187.606 448.171 187.366 447.47 187.366ZM444.247 186.699C445.139 185.823 446.229 185.366 447.47 185.366C448.709 185.366 449.796 185.822 450.677 186.702C451.565 187.576 452.019 188.666 452.019 189.915C452.019 191.157 451.561 192.241 450.673 193.113C449.79 193.98 448.705 194.427 447.47 194.427C446.235 194.427 445.146 193.981 444.253 193.119L444.247 193.113C443.36 192.241 442.902 191.157 442.902 189.915C442.902 188.665 443.357 187.573 444.247 186.699Z"/>
  <path d="M204.243 194.647V141.074H215.338V185.083H238.65V194.647H204.243Z"/>
  <path d="M245.562 194.647V141.074H280.754V150.638H256.658V162.369H278.438V171.933H256.658V185.083H280.754V194.647H245.562Z"/>
  <path d="M284.565 141.074H296.109L310.567 176.453L325.025 141.074H336.606L314.34 194.647H306.831L284.565 141.074Z"/>
  <path d="M342.696 194.647V141.074H349.719L378.635 173.763V141.074H389.731V194.647H382.782L353.791 161.808V194.647H342.696Z"/>
  <path d="M402.022 194.647V141.074H437.214V150.638H413.118V162.369H434.898V171.933H413.118V185.083H437.214V194.647H402.022ZM406.617 126.952H415.77L419.693 131.66L423.578 126.952H432.619L425.446 137.263H413.94L406.617 126.952Z"/>
  <path d="M204.243 121.324V67.7505H223.371C228.676 67.7505 233.059 69.3071 236.521 72.4204C239.983 75.5337 241.714 79.4688 241.714 84.2259C241.714 88.983 239.983 92.9181 236.521 96.0314C233.059 99.1198 228.676 100.664 223.371 100.664H215.338V121.324H204.243ZM215.338 91.1H223.371C225.712 91.1 227.505 90.4524 228.75 89.1573C229.996 87.8622 230.618 86.2184 230.618 84.2259C230.618 82.2334 229.996 80.5896 228.75 79.2945C227.505 77.9745 225.712 77.3145 223.371 77.3145H215.338V91.1Z"/>
  <path d="M250.194 121.324V67.7505H261.29V111.76H284.602V121.324H250.194Z"/>
  <path d="M291.514 121.324V67.7505H326.706V77.3145H302.609V89.0452H324.39V98.6092H302.609V111.76H326.706V121.324H291.514Z"/>
  <path d="M336.644 121.324V67.7505H343.667L372.583 100.44V67.7505H383.679V121.324H376.73L347.739 88.4848V121.324H336.644Z"/>
  <path d="M395.97 121.324V67.7505H407.066V86.6542L424.438 67.7505H437.962L415.845 91.7725L442.258 121.324H427.875L407.066 98.3103V121.324H395.97Z"/>
  <path d="M440.651 67.7505H452.756L464.898 88.1113L477.077 67.7505H489.144L470.427 98.9081V121.324H459.406V98.9081L440.651 67.7505Z"/>
  <path fill-rule="evenodd" clip-rule="evenodd" d="M86.0755 207.399L83.0375 204.716C17.7214 148.362 0 128.505 0 96.3027C0 69.4679 20.2531 48 45.5694 48C66.3288 48 77.9743 60.344 86.0755 70.0046C94.1767 60.344 105.822 48 126.582 48C151.898 48 172.151 69.4679 172.151 96.3027C172.151 128.505 154.43 148.362 89.1135 204.716L86.0755 207.399ZM124.539 89.4316C124.17 88.9882 123.777 88.5578 123.363 88.1439C122.947 87.7282 122.517 87.3355 122.074 86.9657C117.662 83.2841 111.901 82.142 106.274 83.8323C100.385 85.6011 95.8211 90.1483 94.0637 95.9996C93.3748 98.2904 92.6156 100.35 91.8089 102.209C81.0291 93.2098 67.4153 85.1577 62.2005 90.3741C59.4384 93.1361 60.1731 98.6013 64.3293 106.177C64.7629 106.968 65.2357 107.774 65.7315 108.591C62.2332 109.982 59.0915 111.996 56.4146 114.671C45.5693 125.516 45.5693 143.164 56.4146 154.011C61.8372 159.433 68.9599 162.145 76.0843 162.145C83.2086 162.145 90.3313 159.433 95.754 154.011C98.4309 151.334 100.444 148.192 101.834 144.694C102.649 145.189 103.458 145.662 104.248 146.096C108.82 148.603 112.622 149.866 115.527 149.866C117.436 149.866 118.956 149.321 120.053 148.225C125.078 143.2 117.952 130.532 109.167 119.757C111.056 118.929 113.161 118.15 115.509 117.443C121.358 115.686 125.907 111.12 127.676 105.233C129.363 99.6011 128.223 93.843 124.539 89.4316ZM84.5548 131.165L84.556 131.166C84.6146 131.223 84.673 131.28 84.732 131.335C84.7568 131.358 84.7817 131.381 84.8065 131.404C84.8368 131.432 84.867 131.459 84.8972 131.487C84.9646 131.548 85.0318 131.609 85.0985 131.672C85.1097 131.683 85.1209 131.693 85.1321 131.703C85.1381 131.709 85.1441 131.714 85.1501 131.72C85.1673 131.735 85.1845 131.751 85.2016 131.767C85.8234 132.348 86.4452 132.919 87.0702 133.48C87.1461 133.549 87.222 133.619 87.2979 133.688L87.2987 133.689C87.4123 133.794 87.526 133.898 87.6397 133.999C87.6544 134.012 87.6708 134.025 87.6855 134.038C87.719 134.068 87.7526 134.096 87.7861 134.125C87.8197 134.154 87.8532 134.182 87.8867 134.212C88.628 134.868 89.3692 135.508 90.1121 136.133C90.1671 136.179 90.2225 136.227 90.2779 136.275C90.3509 136.338 90.424 136.401 90.4966 136.462C91.3148 137.145 92.1312 137.803 92.9461 138.446C93.1294 138.592 93.3126 138.738 93.4959 138.882C92.6925 141.977 91.084 144.79 88.8096 147.066C81.7916 154.083 70.3737 154.084 63.354 147.066C56.336 140.048 56.336 128.629 63.354 121.611C65.6285 119.336 68.4412 117.729 71.5387 116.924C71.6451 117.061 71.7543 117.198 71.8635 117.335L71.8642 117.336L71.9739 117.474C72.617 118.289 73.2764 119.106 73.9587 119.924C74.0127 119.987 74.068 120.052 74.1232 120.116C74.1784 120.18 74.2336 120.244 74.2876 120.308C74.9127 121.049 75.5541 121.792 76.2086 122.534C76.2251 122.552 76.2413 122.571 76.2575 122.59C76.2701 122.605 76.2827 122.619 76.2953 122.634C76.3086 122.65 76.322 122.665 76.3354 122.681C76.3508 122.699 76.3663 122.717 76.3821 122.735C76.3886 122.742 76.3952 122.75 76.4017 122.758C76.4083 122.765 76.4148 122.773 76.4213 122.781C76.5119 122.883 76.6058 122.985 76.6997 123.087L76.7003 123.087C76.7809 123.175 76.8615 123.262 76.94 123.35C77.5013 123.973 78.0723 124.597 78.6532 125.219C78.6696 125.236 78.6851 125.253 78.7007 125.27L78.7007 125.27C78.7163 125.287 78.7318 125.305 78.7481 125.322C78.7995 125.377 78.8496 125.432 78.8996 125.487C78.9609 125.554 79.0221 125.622 79.0852 125.688C79.1335 125.74 79.1834 125.791 79.2334 125.842C79.2832 125.893 79.3331 125.944 79.3814 125.996C80.1946 126.852 81.0193 127.704 81.8652 128.552C82.7112 129.399 83.5686 130.226 84.4244 131.039C84.4681 131.08 84.5114 131.123 84.5548 131.165ZM117.737 145.909C116.535 147.11 112.776 147.038 105.82 143.226C104.385 142.439 102.893 141.519 101.375 140.519C100.943 140.235 100.509 139.947 100.074 139.647C99.7154 139.402 99.3538 139.145 98.9922 138.888L98.8393 138.78C98.4402 138.497 98.0407 138.214 97.6373 137.918C97.266 137.644 96.8924 137.357 96.5184 137.071L96.2809 136.889C96.2473 136.862 96.2133 136.837 96.1793 136.811C96.1454 136.785 96.1115 136.759 96.0779 136.733C95.2745 136.115 94.4695 135.475 93.6661 134.82C93.5835 134.753 93.5008 134.686 93.4181 134.619L93.4178 134.619C93.3024 134.526 93.1867 134.432 93.0705 134.336C92.3047 133.703 91.5406 133.048 90.7764 132.384C90.6962 132.314 90.6157 132.245 90.5352 132.176L90.5343 132.175C90.4327 132.088 90.3311 132 90.2299 131.911C90.1014 131.797 89.9715 131.681 89.8428 131.566L89.8414 131.565L89.8061 131.533C89.1467 130.947 88.4889 130.347 87.8327 129.738C87.7729 129.682 87.7131 129.628 87.6529 129.573L87.6529 129.573C87.611 129.535 87.569 129.497 87.5268 129.458L87.3667 129.309C87.2073 129.161 87.048 129.013 86.8886 128.863C85.9821 128.005 85.0789 127.135 84.1806 126.238C83.2839 125.341 82.4134 124.437 81.556 123.53C81.4052 123.371 81.2572 123.211 81.1092 123.052C81.0596 122.999 81.01 122.945 80.9604 122.892C80.8698 122.795 80.7822 122.698 80.6933 122.6L80.6806 122.586C80.0719 121.93 79.4714 121.272 78.8856 120.613C78.7596 120.472 78.632 120.329 78.5076 120.189C78.4256 120.095 78.3453 120.002 78.2652 119.909C78.1887 119.82 78.1123 119.731 78.0347 119.642C77.3704 118.878 76.7142 118.114 76.0826 117.348C75.9984 117.246 75.9168 117.145 75.8353 117.044C75.7569 116.947 75.6786 116.85 75.5983 116.753C74.9438 115.949 74.304 115.146 73.6855 114.341C73.6595 114.307 73.6339 114.274 73.6083 114.24L73.6077 114.239C73.5819 114.205 73.5562 114.171 73.53 114.138L73.3484 113.901L73.3473 113.899C73.0609 113.526 72.7747 113.152 72.5008 112.781C72.1783 112.343 71.871 111.908 71.5628 111.472L71.5624 111.472L71.5305 111.426C71.2736 111.065 71.0167 110.703 70.7713 110.345C70.4718 109.91 70.1839 109.476 69.8991 109.044C68.8994 107.526 67.9814 106.033 67.1927 104.598C63.3802 97.6457 63.3066 93.8839 64.5092 92.6813C64.9936 92.1969 65.7626 91.9531 66.7804 91.9531C71.0756 91.9531 79.8084 96.2991 90.3281 105.228C90.2682 105.338 90.2088 105.451 90.1494 105.563L90.1492 105.564C90.0461 105.759 89.943 105.955 89.8372 106.135C89.8298 106.147 89.8224 106.16 89.815 106.173C89.8077 106.185 89.8003 106.198 89.793 106.21C89.4101 106.853 89.0191 107.449 88.6214 107.998L88.5822 108.052C88.1845 108.597 87.782 109.091 87.373 109.538C87.355 109.558 87.3386 109.576 87.3206 109.594C86.9164 110.031 86.5057 110.419 86.0901 110.757C86.0785 110.767 86.0666 110.776 86.0547 110.785L86.0441 110.793C86.0326 110.802 86.0211 110.81 86.0099 110.819C85.5943 111.152 85.1738 111.438 84.75 111.667L82.6948 112.775L84.4358 114.329C86.3094 116.001 88.142 117.731 89.8797 119.469C92.3521 121.941 94.7575 124.553 97.027 127.23L98.6224 129.111L99.7367 126.911C99.9559 126.479 100.236 126.05 100.561 125.624C100.581 125.6 100.597 125.574 100.617 125.548C100.948 125.125 101.332 124.708 101.766 124.296L101.778 124.285C101.793 124.27 101.809 124.254 101.825 124.239C102.266 123.823 102.759 123.414 103.3 123.011C103.309 123.005 103.317 122.999 103.326 122.993C103.338 122.984 103.35 122.975 103.363 122.965C103.909 122.563 104.505 122.165 105.149 121.778C105.176 121.761 105.205 121.746 105.231 121.73C105.412 121.622 105.611 121.516 105.81 121.411C105.924 121.351 106.037 121.29 106.148 121.229C116.443 133.685 120.148 143.499 117.737 145.909ZM124.539 104.291C123.088 109.123 119.359 112.868 114.565 114.31C112.166 115.031 109.525 115.977 106.992 117.15L106.964 117.117L105.814 117.693C105.778 117.712 105.745 117.73 105.712 117.749C105.683 117.765 105.654 117.782 105.622 117.798C105.367 117.928 105.12 118.067 104.872 118.207L104.872 118.207C104.758 118.271 104.644 118.335 104.529 118.399C102.695 119.413 101.129 120.488 99.8676 121.627C99.8283 121.662 99.7865 121.696 99.7446 121.729C99.6923 121.771 99.64 121.813 99.5927 121.858C99.0363 122.381 98.534 122.915 98.0988 123.461C97.3395 122.596 96.559 121.745 95.7752 120.897C94.6004 119.626 93.4108 118.372 92.1983 117.158C90.8991 115.859 89.5492 114.565 88.1698 113.297C88.7082 112.858 89.235 112.353 89.7488 111.796C89.8 111.741 89.8488 111.679 89.8975 111.617C89.9375 111.567 89.9775 111.516 90.0188 111.469C91.0971 110.247 92.1182 108.753 93.0836 107.012C93.1352 106.919 93.1872 106.826 93.2391 106.733L93.2393 106.733C93.419 106.412 93.5984 106.091 93.7659 105.76C93.7808 105.731 93.796 105.704 93.8111 105.678C93.8292 105.646 93.8471 105.615 93.8641 105.58L94.4269 104.446L94.3975 104.42C95.5527 101.912 96.4854 99.3016 97.1955 96.9389C98.6371 92.1446 102.381 88.4171 107.214 86.9657C111.775 85.5978 116.423 86.5125 119.976 89.4758C120.344 89.7834 120.701 90.109 121.049 90.4576C121.394 90.8012 121.722 91.1595 122.028 91.526C124.991 95.08 125.907 99.732 124.539 104.291ZM103.415 97.4792C104.796 94.6665 107.674 92.0254 111.233 92.3382C114.668 92.2103 117.788 94.7969 118.961 97.4792C119.558 98.1583 119.493 99.1924 118.814 99.7896C118.503 100.063 118.117 100.197 117.734 100.197C117.28 100.197 116.829 100.011 116.505 99.6424C113.369 94.407 108.986 94.2841 105.872 99.6424C105.275 100.32 104.244 100.387 103.562 99.7896C102.885 99.1924 102.817 98.1583 103.415 97.4792Z"/>
</svg>
