<svg width="512" height="256" viewBox="0 0 512 256" fill="none"
  xmlns="http://www.w3.org/2000/svg">
  <path d="M152.808 113.188C152.891 112.112 153.057 110.789 152.56 109.466C152.726 105.414 150.079 102.767 147.847 100.783C142.802 98.7979 137.675 96.8958 130.893 97.392C129.405 98.3017 127.503 97.7228 125.849 97.8882C123.616 98.4671 120.639 100.286 120.639 104.67C121.796 106.489 120.969 109.218 121.796 111.285C121.383 111.947 121.466 112.609 121.548 113.353C121.548 113.766 121.714 113.849 121.796 114.263C121.796 115.09 121.631 114.511 121.714 115.338C122.375 122.698 121.879 131.712 122.293 138.99C122.541 142.38 122.706 145.771 122.871 149.327L123.12 154.454C122.706 157.018 123.368 159.912 125.518 163.551C128.247 163.22 131.059 163.22 131.968 159.83C132.134 158.341 132.216 156.687 132.299 155.033C132.382 152.8 132.465 151.146 131.968 148.996C131.803 147.094 131.803 145.854 132.051 145.357C131.555 144.861 131.555 140.561 131.472 138.08C132.051 136.261 131.72 134.772 131.472 132.953C141.561 133.862 151.32 122.367 152.808 113.188ZM143.133 109.466C144.952 115.586 141.065 119.142 137.592 122.781C136.021 124.517 133.622 124.352 131.555 124.186C131.389 123.277 131.472 120.961 131.389 119.886C131.141 117.074 131.472 116.165 131.72 115.503C131.307 115.007 131.307 112.443 131.141 112.112L130.893 111.616C131.307 110.21 131.555 108.887 131.307 107.481L131.803 107.233C136.021 106.241 140.652 106.82 143.133 109.466Z"/>
  <path d="M177.295 143.621C175.724 143.455 173.656 145.44 173.16 143.207V143.042C173.078 141.057 172.168 140.644 173.326 138.824C172.251 134.358 172.747 130.141 173.078 126.502C172.168 122.119 172.829 117.322 172.995 112.774C171.589 110.376 172.499 107.895 171.837 105.414C172.416 104.091 172.499 102.85 172.251 102.023C171.506 98.6325 172.581 94.084 172.829 90.3626C172.002 88.1297 172.664 88.9567 172.168 88.1297C172.085 87.4681 172.168 86.6411 172.333 86.0622C172.416 84.739 171.92 82.837 170.514 81.6792C169.521 80.6868 167.785 80.0252 165.304 80.356C163.733 81.6792 163.071 82.9197 162.823 84.2428C162.409 86.1449 162.74 88.1297 162.409 90.528C163.484 99.3768 163.898 108.143 163.567 116.992C163.484 123.608 163.981 130.058 163.815 136.426C163.733 142.711 164.146 145.606 165.552 151.973C166.379 153.048 168.281 153.462 170.266 153.545C172.499 153.71 174.897 153.297 176.22 152.966C178.37 152.221 179.942 149.492 179.776 147.177C179.693 145.44 178.37 143.869 177.295 143.621Z"/>
  <path d="M213.21 115.172C213.127 114.593 212.796 114.097 212.548 113.518C212.548 113.188 212.466 112.774 212.3 112.361C211.804 109.962 209.654 108.474 208.331 106.406C207.586 105.248 205.85 104.173 204.857 103.181C200.474 99.5422 194.603 100.369 190.385 103.594C183.852 108.556 182.777 116.826 182.115 124.517C182.28 125.096 182.694 125.675 182.777 126.419C183.107 129.066 184.265 131.381 185.258 133.945C185.423 134.358 185.588 134.855 185.836 135.268C186.415 136.261 187.49 137.17 188.317 137.997C192.37 142.049 196.753 145.936 202.707 146.184L204.857 145.027C206.098 144.365 207.421 144.365 208.165 142.959C208.331 142.628 208.413 142.049 208.496 141.636C209.24 137.915 206.759 137.749 204.94 136.591L203.286 136.178C202.79 135.93 202.128 135.847 201.632 135.847C200.888 135.268 200.226 135.103 199.234 135.103C197.58 134.028 196.174 132.456 194.685 131.051C194.272 129.975 193.445 128.9 192.949 127.743C197.58 126.916 204.775 125.758 209.571 125.923L211.308 125.179C215.525 124.435 213.21 115.172 213.21 115.172ZM204.775 116.826C202.045 117.736 195.43 117.984 192.7 118.48C193.114 115.999 194.52 111.864 197.001 110.955C198.655 111.12 202.376 111.534 203.203 113.105C203.948 113.601 205.188 115.917 204.775 116.826Z"/>
  <path d="M249.581 136.012V120.465C248.837 117.571 252.228 111.947 244.619 110.458C242.469 111.285 240.567 112.03 240.071 114.511C239.161 118.067 240.981 121.375 240.898 125.179L241.725 130.306C240.071 127.494 234.53 122.036 232.959 119.142C232.049 118.48 231.305 117.488 230.56 116.495C227.335 112.361 220.058 111.699 220.306 118.149L219.81 118.646C219.065 120.134 218.817 121.706 219.81 123.194C220.058 126.75 220.719 130.306 221.298 133.862C221.96 138.328 222.373 142.876 222.621 147.26C225.599 150.816 227.831 149.079 230.478 146.681C232.132 145.109 231.057 143.952 230.974 142.132V140.561C230.891 137.501 229.568 133.449 229.568 130.306V129.479C229.733 129.727 229.733 129.066 230.891 131.464C234.034 133.945 239.078 140.726 241.89 143.621C243.462 145.275 244.123 144.696 247.514 143.952C250.904 141.223 249.581 139.486 249.581 136.012Z"/>
  <path d="M295.032 159.83C295.032 159.416 294.122 157.183 294.122 156.77C293.295 153.875 293.544 153.793 292.22 151.477C291.641 146.433 288.003 143.373 287.093 139.32C286.928 138.576 286.845 137.666 286.597 136.922C285.935 135.02 283.95 133.283 283.62 131.216C281.8 128.9 281.635 126.089 280.642 123.525C282.379 120.879 286.597 117.074 287.755 115.172C288.912 113.27 289.078 113.105 290.153 111.12C290.566 109.549 290.153 107.564 289.078 106.323C286.762 103.677 284.447 103.512 282.296 105.248C280.725 107.399 276.508 113.518 274.936 115.917C273.696 117.819 272.455 119.803 270.967 121.292C271.049 118.894 269.395 119.473 270.801 114.759C271.298 115.917 270.222 112.195 269.561 111.451C269.147 108.391 269.065 107.068 269.147 104.008C268.072 101.113 268.568 101.196 268.568 98.5498C268.568 97.5574 268.32 96.6477 268.32 95.738C268.32 94.8283 268.403 93.8359 268.403 92.8435C268.403 91.6031 268.155 90.4453 268.072 89.2875C267.659 83.7467 266.418 79.0328 262.366 79.4463C257.735 80.356 256.577 81.6792 256.742 85.7314C257.735 87.7162 257.818 89.7837 257.818 91.8512C257.818 94.8283 257.983 96.6477 258.396 99.4595C258.727 101.61 258.479 103.76 258.645 105.91C258.975 109.962 259.72 112.361 260.133 116.495C259.141 119.638 260.547 120.63 260.629 122.284C260.877 126.916 260.795 131.464 261.208 135.847C261.291 136.757 261.787 137.749 261.87 138.742C262.035 140.809 260.96 142.959 261.126 145.027C261.208 146.102 261.622 146.929 261.704 147.838C261.787 148.583 261.456 149.575 261.456 150.402C261.456 153.214 262.035 154.537 263.028 157.101C265.26 159.003 268.403 159.086 270.471 157.514C271.711 155.612 272.455 153.875 272.621 151.725C272.207 150.65 271.463 135.682 271.628 134.855C271.794 133.862 272.951 132.87 273.696 132.126C274.192 133.449 274.936 134.689 275.432 135.93L276.59 138.99L277.748 142.132C278.658 144.613 279.898 146.763 280.973 149.327C282.958 154.041 284.364 157.018 285.439 161.98C286.68 164.626 289.739 166.115 291.724 165.04C294.371 163.634 295.032 162.393 295.032 159.83Z"/>
  <path d="M332.313 105C330.411 102.933 328.426 102.023 326.606 102.023C323.464 102.023 320.735 104.752 319.825 109.549C318.833 114.759 316.186 121.457 314.119 126.006L309.984 119.969C309.57 116.744 307.503 114.097 306.097 111.285C305.435 110.624 304.608 110.376 303.781 110.376C302.127 110.376 300.308 111.451 298.985 112.361C297.662 114.263 297.166 115.917 297.166 117.322C297.166 121.292 301.135 123.69 302.376 126.667C303.285 128.9 306.841 133.118 308.247 135.268C308.495 136.012 308.991 136.591 309.488 137.088C307.916 141.967 305.684 147.425 304.526 152.304C302.789 159.912 296.587 170.746 296.587 174.964C296.587 175.46 296.669 175.791 296.835 176.122C298.406 179.595 300.391 181.001 302.21 181.001C304.03 181.001 305.684 179.595 306.511 177.445C309.818 171.821 312.217 162.807 314.532 154.372C314.78 150.898 316.6 148.004 317.427 144.696C319.825 142.959 318.667 140.809 320.156 138.576C320.321 137.005 327.516 118.976 328.839 116.826C330.08 114.097 332.809 112.526 332.809 108.391C332.809 107.399 332.643 106.323 332.313 105Z"/>
  <path d="M367.189 144.696C363.385 142.876 355.198 143.125 350.98 143.207C350.318 143.125 349.74 143.207 349.243 143.207L348.995 143.29C349.161 137.253 350.153 131.299 349.078 125.427C349.326 124.186 349.326 122.946 349.326 121.871C349.326 118.976 348.499 115.172 349.491 112.443C350.318 109.797 348.582 109.301 349.243 106.654C349.161 102.85 348.086 99.7076 343.372 100.535C341.47 101.775 339.65 103.843 339.816 105.827C340.643 118.232 340.725 131.547 339.898 143.952C338.906 145.275 339.485 147.011 339.071 148.583C340.808 152.304 341.552 152.47 344.86 153.214C350.732 152.718 355.198 152.635 361.4 152.552C362.558 152.552 364.295 152.8 365.37 152.47C368.181 151.394 368.347 146.019 367.189 144.696Z"/>
  <path d="M395.923 115.172C395.84 114.593 395.51 114.097 395.261 113.518C395.261 113.188 395.179 112.774 395.013 112.361C394.517 109.962 392.367 108.474 391.044 106.406C390.3 105.248 388.563 104.173 387.57 103.181C383.187 99.5422 377.316 100.369 373.098 103.594C366.565 108.556 365.49 116.826 364.828 124.517C364.994 125.096 365.407 125.675 365.49 126.419C365.821 129.066 366.978 131.381 367.971 133.945C368.136 134.358 368.302 134.855 368.55 135.268C369.129 136.261 370.204 137.17 371.031 137.997C375.083 142.049 379.466 145.936 385.42 146.184L387.57 145.027C388.811 144.365 390.134 144.365 390.878 142.959C391.044 142.628 391.127 142.049 391.209 141.636C391.954 137.915 389.473 137.749 387.653 136.591L385.999 136.178C385.503 135.93 384.841 135.847 384.345 135.847C383.601 135.268 382.939 135.103 381.947 135.103C380.293 134.028 378.887 132.456 377.398 131.051C376.985 129.975 376.158 128.9 375.662 127.743C380.293 126.916 387.488 125.758 392.284 125.923L394.021 125.179C398.239 124.435 395.923 115.172 395.923 115.172ZM387.488 116.826C384.759 117.736 378.143 117.984 375.414 118.48C375.827 115.999 377.233 111.864 379.714 110.955C381.368 111.12 385.089 111.534 385.916 113.105C386.661 113.601 387.901 115.917 387.488 116.826Z"/>
  <path d="M439.159 120.3C438.249 117.24 435.933 115.917 433.452 116.413C431.798 116.826 429.979 118.398 428.573 119.721C427.581 125.096 425.265 129.479 422.371 133.697C418.815 129.727 414.514 126.171 410.958 122.202C409.966 119.886 408.725 117.901 405.996 117.653C400.869 117.157 399.628 123.442 400.952 125.013C405.417 129.893 409.304 134.11 413.605 138.659C416.003 143.538 417.988 141.967 421.047 146.763C423.198 148.583 427.002 146.433 429.069 143.703C428.325 140.809 431.219 139.403 431.881 136.509C432.625 133.283 434.858 130.637 435.933 127.494C437.505 124.765 439.076 124.104 439.159 120.3Z"/>
  <path d="M473.44 136.012V120.465C472.696 117.571 476.087 111.947 468.479 110.458C466.328 111.285 464.426 112.03 463.93 114.511C463.02 118.067 464.84 121.375 464.757 125.179L465.584 130.306C463.93 127.494 458.389 122.036 456.818 119.142C455.908 118.48 455.164 117.488 454.42 116.495C451.194 112.361 443.917 111.699 444.165 118.149L443.669 118.646C442.925 120.134 442.676 121.706 443.669 123.194C443.917 126.75 444.579 130.306 445.157 133.862C445.819 138.328 446.232 142.876 446.481 147.26C449.458 150.816 451.691 149.079 454.337 146.681C455.991 145.109 454.916 143.952 454.833 142.132V140.561C454.751 137.501 453.427 133.449 453.427 130.306V129.479C453.593 129.727 453.593 129.066 454.751 131.464C457.893 133.945 462.938 140.726 465.749 143.621C467.321 145.275 467.982 144.696 471.373 143.952C474.764 141.223 473.44 139.486 473.44 136.012Z"/>
  <path d="M508.968 83.4986C508.885 82.1754 508.141 81.3484 506.983 80.6868L504.584 80.1906C498.961 81.5965 499.705 84.6563 495.818 87.1373C493.668 84.8217 493.007 84.0774 491.27 81.5138C490.195 80.2733 489.037 79.4463 487.135 79.4463C485.812 79.2809 484.902 79.7771 484.075 80.6041L482.917 82.7543C483.165 88.1297 487.135 87.5508 488.954 91.6031C490.278 92.7609 490.608 94.4975 491.932 95.738L492.18 96.1515C493.255 96.6477 493.834 96.8131 494.164 96.8958C495.818 97.3093 496.48 97.392 498.299 96.9785C501.525 93.5051 503.344 91.0242 507.231 88.047C508.141 86.4757 509.133 85.566 508.968 83.4986ZM511.366 115.172C511.283 114.593 510.952 114.097 510.704 113.518C510.704 113.188 510.621 112.774 510.456 112.361C509.96 109.962 507.81 108.474 506.487 106.406C505.742 105.248 504.006 104.173 503.013 103.181C498.63 99.5422 492.758 100.369 488.541 103.594C482.008 108.556 480.933 116.826 480.271 124.517C480.436 125.096 480.85 125.675 480.933 126.419C481.263 129.066 482.421 131.381 483.414 133.945C483.579 134.358 483.744 134.855 483.992 135.268C484.571 136.261 485.646 137.17 486.473 137.997C490.526 142.049 494.909 145.936 500.863 146.184L503.013 145.027C504.254 144.365 505.577 144.365 506.321 142.959C506.487 142.628 506.569 142.049 506.652 141.636C507.396 137.915 504.915 137.749 503.096 136.591L501.442 136.178C500.946 135.93 500.284 135.847 499.788 135.847C499.044 135.268 498.382 135.103 497.39 135.103C495.736 134.028 494.33 132.456 492.841 131.051C492.428 129.975 491.601 128.9 491.104 127.743C495.736 126.916 502.93 125.758 507.727 125.923L509.464 125.179C513.681 124.435 511.366 115.172 511.366 115.172ZM502.93 116.826C500.201 117.736 493.585 117.984 490.856 118.48C491.27 115.999 492.676 111.864 495.157 110.955C496.811 111.12 500.532 111.534 501.359 113.105C502.103 113.601 503.344 115.917 502.93 116.826Z"/>
  <path fill-rule="evenodd" clip-rule="evenodd" d="M55.059 99.9614C61.3448 88.7679 69.4459 81.2287 79.6667 77.0659C86.7168 74.1935 86.7791 74.198 91.6562 77.8275C95.5889 80.7518 95.7023 81.8796 93.0826 91.9521C90.4052 102.244 84.5783 113.3 64.4566 146.754C60.015 154.139 59.3473 156.957 59.3473 159.827C60.8081 164.996 59.592 166.212 56.5699 164.996C49.8627 161.348 34.1553 155.472 23.6501 145.477C9.21878 131.748 1.72427 118.705 0.286698 104.823C-1.08867 91.516 2.46861 83.7372 11.3007 80.7586C21.1593 77.4297 31.2246 83.5384 40.6922 98.5941L48.6888 111.306L55.059 99.9614ZM63.6413 100.065C69.4873 93.0265 77.736 86.7302 80.7195 89.9139C82.6991 92.0263 82.0214 92.034 81.4829 94.4586C80.8474 97.3215 75.4021 111.485 71.7536 119.998C68.1051 128.511 65.6728 132.16 59.592 140.673L52.295 152.834L43.7819 147.97C35.2725 144.048 19.4586 124.863 17.0263 117.566C13.7155 106.392 12.4992 97.498 17.9383 94.7827C24.3201 91.5944 31.3008 93.0427 39.6663 107.31C39.6742 107.324 39.6821 107.337 39.6901 107.351C40.1948 108.237 40.7001 109.108 41.2026 109.959C44.2525 115.212 47.293 119.762 49.2179 122.054C50.3802 123.502 51.2462 124.334 51.6662 124.339C52.9393 124.353 55.2323 119.614 56.7588 113.804C57.9424 109.303 60.511 104.489 63.6413 100.065Z"/>
</svg>
