<svg width="512" height="256" viewBox="0 0 512 256" fill="none"
  xmlns="http://www.w3.org/2000/svg">
  <path d="M21.428 174.154V179.842C21.428 217.895 34.378 235.038 77.071 235.038H84.07C126.758 235.038 139.708 214.468 139.708 179.848V173.332C139.708 103.737 37.179 134.935 37.179 82.139V68.768C37.179 49.57 43.479 37.57 68.32 37.57H89.318C114.164 37.57 120.459 49.569 120.459 68.762V115.587C129.174 119.76 137.279 125.135 143.65 132.545C151.872 142.129 157.201 155.12 157.201 173.332V179.842C157.201 222.7 135.155 250.465 84.071 250.465H77.072C25.982 250.465 3.937 226.128 3.937 179.842V174.154C1.512 171.871 0.002 168.642 0 165.058C0 158.11 5.684 152.483 12.682 152.483C19.68 152.483 25.365 158.115 25.365 165.053C25.365 168.635 23.856 171.866 21.44 174.142L21.434 174.147L21.428 174.154ZM91.069 217.896H70.071C45.225 217.896 38.93 205.902 38.93 186.704V139.776C18.95 130.259 2.188 114.442 2.188 82.139V75.623C2.183 32.765 24.229 5 75.313 5H82.312C133.402 5 155.447 29.343 155.447 75.623V81.353C157.872 83.645 159.383 86.877 159.383 90.459C159.351 97.417 153.704 103.044 146.742 103.044C146.728 103.044 146.713 103.044 146.699 103.044H146.701C146.689 103.044 146.674 103.044 146.659 103.044C139.697 103.044 134.05 97.416 134.018 90.462V90.459C134.018 86.877 135.529 83.645 137.949 81.353V75.623C137.949 37.57 124.999 20.433 82.311 20.433H75.312C32.629 20.428 19.679 40.993 19.679 75.619V82.135C19.679 151.73 122.209 120.533 122.209 173.328V186.699C122.209 205.898 115.909 217.891 91.068 217.891L91.069 217.896ZM56.424 146.601V186.704C56.424 197.331 59.923 202.47 70.073 202.47H91.071C101.215 202.47 104.715 197.331 104.715 186.704V173.333C104.715 157.84 81.025 154.628 56.426 146.601H56.424ZM102.961 108.738V68.769C102.961 58.142 99.466 52.998 89.317 52.998H68.319C58.175 52.998 54.675 58.136 54.675 68.769V82.14C54.675 97.464 78.355 100.67 102.959 108.739L102.961 108.738Z"/>
  <path d="M267.963 148.188C262.054 148.188 256.863 147.145 252.382 145.058C247.906 142.971 244.437 139.996 241.976 136.132C239.51 132.272 238.276 127.807 238.276 122.745V119.281C238.276 118.839 238.435 118.459 238.749 118.15C239.063 117.841 239.443 117.687 239.895 117.687H251.982C252.429 117.687 252.804 117.841 253.123 118.15C253.411 118.43 253.591 118.823 253.591 119.256C253.591 119.265 253.591 119.273 253.591 119.282V119.281V121.948C253.591 125.766 254.937 128.875 257.62 131.27C260.308 133.67 263.936 134.867 268.499 134.867C272.713 134.867 275.935 133.804 278.17 131.671C280.41 129.539 281.531 126.737 281.531 123.279C281.531 120.879 280.904 118.814 279.65 117.082C278.396 115.356 276.628 113.752 274.342 112.288C272.061 110.824 268.546 108.845 263.802 106.363C258.34 103.522 253.951 100.988 250.636 98.768C247.277 96.486 244.481 93.647 242.314 90.356L242.244 90.243C239.963 86.779 238.816 82.56 238.816 77.591C238.816 69.949 241.391 63.912 246.54 59.472C251.689 55.032 258.473 52.812 266.889 52.812C272.706 52.812 277.855 53.901 282.331 56.075C286.812 58.254 290.255 61.337 292.675 65.336C295.09 69.329 296.303 73.902 296.303 79.056V81.852C296.303 81.858 296.303 81.864 296.303 81.871C296.303 82.307 296.122 82.701 295.83 82.982C295.546 83.271 295.152 83.45 294.715 83.45C294.706 83.45 294.696 83.45 294.688 83.45H282.603C282.594 83.45 282.583 83.45 282.572 83.45C282.138 83.45 281.745 83.273 281.462 82.987C281.171 82.706 280.989 82.312 280.989 81.876C280.989 81.867 280.989 81.858 280.989 81.85V81.851V79.317C280.989 75.499 279.689 72.349 277.093 69.861C274.497 67.373 271.004 66.13 266.62 66.13C262.766 66.13 259.723 67.132 257.483 69.131C255.247 71.125 254.127 73.9 254.127 77.456C254.127 79.85 254.708 81.896 255.874 83.581C257.035 85.266 258.803 86.869 261.177 88.375C263.551 89.886 267.153 91.839 271.989 94.233C278.433 97.882 283.181 100.719 286.224 102.763C289.326 104.878 291.902 107.519 293.883 110.58L293.948 110.687C296.055 113.93 297.104 117.902 297.104 122.609C297.104 130.425 294.463 136.638 289.18 141.263C283.897 145.878 276.827 148.185 267.956 148.185L267.963 148.188ZM356.874 147.125C355.888 147.125 355.261 146.683 354.993 145.789L351.498 131.539C351.411 131.179 351.19 131.005 350.83 131.005H323.162C322.802 131.005 322.581 131.185 322.494 131.539L319.133 145.794C318.861 146.683 318.234 147.125 317.252 147.125H304.492C303.326 147.125 302.879 146.55 303.146 145.394L327.596 55.208C327.868 54.324 328.49 53.877 329.477 53.877H344.79C345.771 53.877 346.398 54.324 346.671 55.213L371.111 145.394L371.245 145.928C371.245 146.724 370.757 147.125 369.77 147.125H356.871H356.874ZM325.713 118.085C325.626 118.352 325.672 118.548 325.847 118.686C326.027 118.815 326.207 118.887 326.386 118.887H347.61C347.785 118.887 347.97 118.815 348.144 118.681C348.324 118.552 348.37 118.353 348.278 118.085L337.266 74.39C337.179 74.128 337.04 73.994 336.865 73.994C336.685 73.994 336.552 74.128 336.459 74.39L325.719 118.085H325.713ZM440.683 121.548C440.683 129.806 438.062 136.132 432.82 140.531C427.584 144.925 420.76 147.124 412.342 147.124H383.734C383.725 147.124 383.714 147.124 383.703 147.124C383.269 147.124 382.876 146.947 382.593 146.662C382.302 146.382 382.12 145.989 382.12 145.553C382.12 145.543 382.12 145.534 382.12 145.525V145.527V55.474C382.12 55.032 382.274 54.652 382.593 54.343C382.876 54.057 383.269 53.88 383.703 53.88C383.714 53.88 383.725 53.88 383.736 53.88H410.729C419.773 53.88 426.823 55.987 431.885 60.201C436.941 64.425 439.475 70.705 439.475 79.056C439.475 88.203 435.847 94.683 428.591 98.501C428.144 98.768 428.103 99.036 428.457 99.303C436.607 103.655 440.683 111.071 440.683 121.549V121.548ZM398.375 67.201C397.928 67.201 397.707 67.422 397.707 67.869V92.638C397.707 93.085 397.928 93.306 398.375 93.306H410.863C415.077 93.306 418.365 92.175 420.735 89.914C423.109 87.647 424.296 84.467 424.296 80.386C424.296 76.213 423.114 72.971 420.735 70.663C418.366 68.35 415.072 67.199 410.869 67.199H398.376L398.375 67.201ZM411.803 133.671C415.925 133.671 419.172 132.428 421.541 129.94C423.915 127.453 425.102 123.989 425.102 119.549C425.102 115.109 423.895 111.625 421.474 109.091C419.059 106.562 415.791 105.293 411.669 105.293H398.375C397.928 105.293 397.707 105.519 397.707 105.961V133.002C397.707 133.449 397.928 133.67 398.375 133.67H411.803V133.671ZM481.917 148.322C476.008 148.322 470.792 147.125 466.27 144.725C461.823 142.381 458.248 138.9 455.857 134.662L455.792 134.535C453.33 130.141 452.102 125.059 452.102 119.283V81.718C452.102 76.034 453.335 70.993 455.792 66.599C458.248 62.234 461.823 58.752 466.132 56.475L466.27 56.409C470.792 54.009 476.008 52.812 481.917 52.812C487.914 52.812 493.171 54.009 497.693 56.409C502.155 58.763 505.748 62.241 508.176 66.474L508.243 66.599C510.745 70.992 512 76.034 512 81.718V119.283C512 125.059 510.746 130.141 508.243 134.535C505.75 138.893 502.157 142.371 497.839 144.658L497.699 144.725C493.177 147.125 487.915 148.322 481.918 148.322H481.917ZM481.917 135.002C486.301 135.002 489.816 133.604 492.457 130.809C495.098 128.008 496.419 124.386 496.419 119.951V81.312C496.419 76.79 495.099 73.121 492.462 70.325C489.815 67.524 486.301 66.127 481.917 66.127C477.616 66.127 474.173 67.525 471.573 70.325C468.978 73.121 467.677 76.784 467.677 81.312V119.945C467.677 124.385 468.977 128.002 471.573 130.804C474.173 133.6 477.616 134.997 481.917 134.997V135.002Z"/>
  <path d="M261.935 165.804C262.082 165.616 262.308 165.496 262.562 165.496H266.54C266.889 165.496 267.064 165.666 267.064 166.015V201.663C267.064 202.012 266.889 202.187 266.54 202.187H262.562C262.213 202.187 262.038 202.012 262.038 201.663V174.823C262.038 174.72 262.007 174.648 261.935 174.612C261.863 174.576 261.812 174.612 261.781 174.715L254.293 186.143C254.165 186.333 253.95 186.458 253.706 186.458C253.692 186.458 253.677 186.458 253.664 186.457H251.677C251.422 186.457 251.196 186.337 251.052 186.15L251.051 186.148L243.517 174.822C243.481 174.719 243.429 174.683 243.358 174.719C243.286 174.75 243.255 174.822 243.255 174.924V201.661C243.255 202.01 243.081 202.185 242.731 202.185H238.754C238.404 202.185 238.23 202.01 238.23 201.661V166.013C238.23 165.664 238.404 165.489 238.754 165.489H242.731C243.009 165.489 243.219 165.592 243.358 165.802L252.515 179.538C252.551 179.574 252.603 179.589 252.669 179.589C252.741 179.589 252.793 179.574 252.828 179.538L261.934 165.802L261.935 165.804ZM286.683 202.603C284.104 202.603 281.853 201.951 279.935 200.64C278.038 199.329 276.621 197.442 275.926 195.235L275.907 195.162C275.306 193.335 274.96 191.232 274.96 189.047C274.96 188.948 274.96 188.848 274.962 188.749V188.764C274.962 186.282 275.26 184.19 275.856 182.474C276.622 180.166 277.963 178.363 279.885 177.048C281.801 175.738 284.089 175.085 286.741 175.085C289.248 175.085 291.438 175.737 293.308 177.048C295.173 178.358 296.504 180.151 297.311 182.423C297.938 184.206 298.251 186.303 298.251 188.713C298.251 191.159 297.938 193.307 297.311 195.162C296.54 197.5 295.215 199.325 293.333 200.64C291.447 201.95 289.232 202.603 286.684 202.603H286.683ZM286.683 198.256C288.081 198.256 289.304 197.86 290.347 197.074C291.395 196.288 292.145 195.177 292.598 193.744C292.983 192.419 293.173 190.773 293.173 188.816C293.173 186.863 292.998 185.234 292.649 183.944C292.253 182.586 291.464 181.446 290.413 180.625L290.399 180.614C289.392 179.874 288.129 179.429 286.762 179.429C286.699 179.429 286.635 179.43 286.572 179.432H286.581C285.153 179.432 283.909 179.828 282.865 180.614C281.817 181.4 281.067 182.511 280.614 183.944C280.234 185.167 280.039 186.791 280.039 188.816C280.039 190.846 280.234 192.485 280.614 193.749C281.035 195.177 281.775 196.287 282.839 197.074C283.903 197.861 285.188 198.256 286.683 198.256V198.256ZM327.136 182.423C327.691 184.206 327.973 186.319 327.973 188.764C327.973 191.385 327.639 193.62 326.976 195.475C326.21 197.747 324.998 199.504 323.342 200.742C321.682 201.985 319.601 202.603 317.088 202.603C315.865 202.603 314.735 202.362 313.686 201.868C312.614 201.363 311.708 200.676 310.97 199.837L310.962 199.828C310.895 199.756 310.834 199.741 310.782 199.777C310.732 199.808 310.7 199.863 310.7 199.926C310.7 199.928 310.7 199.93 310.7 199.932V201.663C310.7 202.012 310.525 202.187 310.181 202.187H306.203C305.854 202.187 305.679 202.012 305.679 201.663V166.015C305.679 165.666 305.854 165.491 306.203 165.491H310.181C310.525 165.491 310.7 165.666 310.7 166.015V177.705C310.7 177.772 310.731 177.828 310.782 177.859C310.833 177.895 310.895 177.88 310.962 177.808C311.733 176.935 312.647 176.267 313.711 175.789C314.774 175.322 315.9 175.085 317.087 175.085C319.702 175.085 321.846 175.732 323.52 177.023C325.195 178.318 326.398 180.117 327.133 182.419L327.136 182.423ZM321.586 195.373C322.459 193.729 322.896 191.56 322.896 188.873C322.896 186.005 322.336 183.698 321.221 181.951C320.209 180.276 318.657 179.433 316.565 179.433C314.612 179.433 313.127 180.327 312.115 182.105C311.211 183.713 310.759 185.954 310.759 188.816C310.759 191.684 311.175 193.883 312.013 195.424C313.061 197.31 314.592 198.25 316.617 198.25C318.919 198.25 320.574 197.295 321.586 195.372V195.373ZM339.315 171.308C338.067 171.308 337.043 171 336.242 170.368C335.509 169.829 335.039 168.97 335.039 168.002C335.039 167.985 335.039 167.968 335.039 167.951V167.953C335.039 167.94 335.039 167.924 335.039 167.909C335.039 166.94 335.51 166.082 336.234 165.548L336.243 165.543C337.044 164.916 338.067 164.603 339.316 164.603C340.565 164.603 341.588 164.911 342.395 165.543C343.128 166.082 343.598 166.941 343.598 167.909C343.598 167.926 343.598 167.943 343.598 167.96V167.958C343.598 167.971 343.598 167.987 343.598 168.002C343.598 168.971 343.127 169.829 342.403 170.363L342.394 170.368C341.587 170.995 340.565 171.308 339.315 171.308ZM336.643 202.13C336.196 202.13 335.975 201.955 335.975 201.606V176.025C335.975 175.676 336.196 175.501 336.643 175.501H341.72C342.167 175.501 342.388 175.676 342.388 176.025V201.606C342.388 201.955 342.167 202.13 341.72 202.13H336.643ZM350.004 202.187C349.655 202.187 349.48 202.012 349.48 201.663V166.015C349.48 165.666 349.655 165.491 350.004 165.491H353.982C354.331 165.491 354.506 165.666 354.506 166.015V201.663C354.506 202.012 354.331 202.187 353.982 202.187H350.004ZM384.126 185.517C384.26 186.95 384.311 188.554 384.28 190.337C384.28 190.686 384.105 190.861 383.756 190.861H367.06C366.921 190.861 366.855 190.933 366.855 191.072C366.855 192.259 366.958 193.168 367.163 193.796C367.553 195.194 368.329 196.289 369.496 197.075C370.663 197.861 372.137 198.257 373.916 198.257C376.501 198.257 378.49 197.188 379.882 195.055C380.057 194.706 380.283 194.654 380.565 194.901L383.546 196.89C383.793 197.101 383.844 197.327 383.7 197.573C382.724 199.145 381.336 200.384 379.542 201.294C377.744 202.203 375.713 202.656 373.448 202.656C370.9 202.656 368.756 202.101 367.009 200.981C365.256 199.83 363.9 198.202 363.112 196.281L363.087 196.213C362.25 194.147 361.828 191.65 361.828 188.715C361.828 186.167 362.023 184.224 362.403 182.898C363.03 180.483 364.289 178.581 366.17 177.184C368.056 175.786 370.343 175.088 373.026 175.088C376.552 175.088 379.187 175.966 380.93 177.735C382.677 179.497 383.736 182.093 384.121 185.52L384.126 185.517ZM373.025 179.433C371.525 179.433 370.286 179.813 369.309 180.563C368.332 181.313 367.67 182.32 367.32 183.574C367.079 184.345 366.919 185.321 366.853 186.514C366.853 186.653 366.92 186.719 367.058 186.719H379.041C379.185 186.719 379.252 186.652 379.252 186.514C379.216 185.582 379.105 184.7 378.92 183.844L378.938 183.945C378.618 182.613 377.885 181.484 376.883 180.676L376.871 180.667C375.843 179.845 374.558 179.434 373.022 179.434L373.025 179.433ZM403.797 202.187C403.448 202.187 403.273 202.012 403.273 201.663V166.015C403.273 165.666 403.448 165.491 403.797 165.491H407.775C408.124 165.491 408.299 165.666 408.299 166.015V201.663C408.299 202.012 408.124 202.187 407.775 202.187H403.797ZM440.951 165.49C441.3 165.49 441.475 165.665 441.475 166.014V169.37C441.475 169.719 441.3 169.894 440.951 169.894H430.905C430.766 169.894 430.694 169.966 430.694 170.099V201.662C430.694 202.011 430.519 202.186 430.17 202.186H426.192C425.843 202.186 425.668 202.011 425.668 201.662V170.104C425.668 169.965 425.601 169.893 425.463 169.893H415.884C415.535 169.893 415.36 169.718 415.36 169.369V166.013C415.36 165.664 415.535 165.489 415.884 165.489H440.951V165.49Z"/>
</svg>
