<svg width="520" height="256" viewBox="0 0 520 256" fill="none"
  xmlns="http://www.w3.org/2000/svg">
  <path d="M9.09839 93.2411V106.963H0V126.652H9.09839V152.455C9.09839 163.641 11.4848 170.801 15.9595 175.276C19.8375 179.154 26.4002 181.988 34.3054 181.988C41.1664 181.988 47.1326 181.093 50.2648 179.9V159.465C48.0276 160.062 46.9834 160.062 43.8512 160.062C37.2885 160.062 35.3495 156.482 35.3495 147.682V126.652H50.5631V106.963H35.3495V86.0817L9.09839 93.2411Z"/>
  <path d="M56.4875 106.963L77.5182 180.347H102.874L108.393 158.272C109.884 152.007 111.078 145.594 112.122 136.197H112.42C113.912 145.594 114.956 151.709 116.447 158.57L121.519 180.347H146.875L168.8 106.963H142.549L138.224 132.767C136.732 141.119 135.39 149.621 134.495 158.272H134.196C133.003 149.621 131.064 141.268 129.424 133.065L123.756 106.963H102.725L96.9082 134.109C95.4169 141.119 93.3286 149.621 91.9862 158.272H91.6879C90.6437 149.621 89.3013 141.268 88.1083 133.96L83.9315 106.963H56.4875Z"/>
  <path d="M242.923 153.051C243.37 151.262 243.967 147.235 243.967 142.909C243.967 122.773 233.824 105.322 210.109 105.322C183.112 105.322 172.075 127.397 172.075 144.401C172.075 167.669 186.692 181.987 212.495 181.987C221.594 181.987 231.14 180.794 239.94 177.363L236.509 159.316C229.947 161.404 223.384 162.15 216.523 162.15C206.977 162.15 198.624 158.869 197.729 153.051H242.923ZM197.431 134.855C197.879 130.231 200.862 122.923 208.767 122.923C217.269 122.923 219.208 130.679 219.208 134.855H197.431Z"/>
  <path d="M256.058 180.347H283.055V138.733C283.055 136.794 283.204 134.705 283.8 133.363C284.993 130.529 287.38 126.95 292.6 126.95C299.163 126.95 301.997 131.872 301.997 140.373V180.347H328.994V137.092C328.994 116.956 319.597 105.322 302.445 105.322C290.214 105.322 283.055 112.482 280.37 116.36H279.923L278.729 106.963H255.461C255.759 113.824 256.058 122.177 256.058 132.021V180.347Z"/>
  <path d="M347.608 93.2411V106.963H338.51V126.652H347.608V152.455C347.608 163.641 349.994 170.801 354.469 175.276C358.347 179.154 364.909 181.988 372.815 181.988C379.676 181.988 385.642 181.093 388.774 179.9V159.465C386.537 160.062 385.492 160.062 382.36 160.062C375.798 160.062 373.859 156.482 373.859 147.682V126.652H389.073V106.963H373.859V86.0817L347.608 93.2411Z"/>
  <path d="M428.42 180.347V106.963H401.424V180.347H428.42ZM414.996 74C406.645 74 401.276 79.3695 401.276 86.8272C401.276 93.8375 406.496 99.5053 414.847 99.5053C423.349 99.5053 428.718 93.8375 428.718 86.8272C428.569 79.3695 423.349 74 414.996 74Z"/>
  <path d="M481.816 105.322C456.758 105.322 441.396 120.834 441.396 144.251C441.396 168.116 458.399 181.987 480.324 181.987C500.908 181.987 519.999 169.608 519.999 142.909C519.999 120.834 504.786 105.322 481.816 105.322ZM481.07 124.265C488.976 124.265 492.257 133.512 492.257 143.655C492.257 155.438 488.379 163.045 481.07 163.045C472.718 163.045 469.138 154.692 469.138 143.655C469.138 133.96 472.121 124.265 481.07 124.265Z"/>
</svg>
