<svg width="520" height="256" viewBox="0 0 520 256" fill="none"
  xmlns="http://www.w3.org/2000/svg">
  <path d="M127.937 57.782C126.822 56.605 125.483 55.656 123.985 54.998L123.906 54.968C122.469 54.361 120.797 54.008 119.043 54.008C118.999 54.008 118.953 54.008 118.909 54.008H118.916C118.775 54.002 118.61 54 118.444 54C115.87 54 113.469 54.743 111.443 56.023L111.497 55.992C109.513 57.272 108.023 59.176 107.296 61.421L107.276 61.493L92.307 106.271L77.978 63.157C76.247 58.004 71.461 54.358 65.824 54.358C60.187 54.358 55.402 58.003 53.697 63.066L53.671 63.156L39.214 106.27L24.181 61.492C23.341 59.259 21.875 57.421 19.997 56.142L19.959 56.117C17.976 54.794 15.539 54.005 12.918 54.005C12.875 54.005 12.832 54.005 12.788 54.005H12.795C12.72 54.004 12.633 54.003 12.544 54.003C10.789 54.003 9.116 54.356 7.594 54.997L7.679 54.966C6.104 55.654 4.764 56.604 3.653 57.774L3.647 57.78C2.564 58.915 1.679 60.251 1.056 61.724L1.023 61.809C0.379 63.28 0.003 64.994 0 66.797V66.798C0.021 68.452 0.301 70.033 0.799 71.512L0.768 71.404L27.315 150.852C28.171 153.315 29.732 155.35 31.755 156.775L31.793 156.801C33.88 158.238 36.462 159.098 39.245 159.098C42.028 159.098 44.61 158.24 46.742 156.773L46.698 156.802C48.797 155.366 50.371 153.296 51.153 150.869L51.175 150.789L65.824 106.843L80.409 150.662C81.193 153.129 82.72 155.174 84.723 156.587L84.759 156.611C86.907 158.132 89.58 159.042 92.467 159.042C95.354 159.042 98.028 158.131 100.218 156.583L100.175 156.611C102.057 155.128 103.465 153.121 104.182 150.81L104.204 150.726L130.751 71.406C131.314 70.047 131.662 68.471 131.71 66.819V66.8C131.698 65.013 131.298 63.32 130.591 61.8L130.621 61.875C129.938 60.293 129.033 58.939 127.929 57.775L127.935 57.781L127.937 57.782Z"/>
  <path d="M237.899 106.525C237.9 106.388 237.901 106.224 237.901 106.062C237.901 98.9441 236.491 92.1561 233.933 85.9611L234.061 86.3121C231.243 79.6971 227.33 74.062 222.495 69.373L222.483 69.3611C212.972 59.8731 199.845 54.0081 185.349 54.0081C170.853 54.0081 157.726 59.8751 148.214 69.3631L148.215 69.362C138.697 78.662 132.796 91.629 132.796 105.974C132.796 106.169 132.797 106.363 132.799 106.557V106.527V188.342C132.793 188.478 132.791 188.638 132.791 188.799C132.791 195.617 138.319 201.145 145.136 201.145C145.296 201.145 145.456 201.143 145.615 201.136H145.592C145.634 201.136 145.683 201.136 145.732 201.136C149.183 201.136 152.314 199.77 154.615 197.549L154.612 197.552C156.833 195.348 158.208 192.295 158.208 188.922C158.208 188.718 158.202 188.515 158.192 188.312L158.193 188.341V151.687C165.759 156.35 174.929 159.114 184.743 159.114C185.011 159.114 185.28 159.112 185.548 159.107H185.508C185.608 159.107 185.727 159.108 185.845 159.108C192.941 159.108 199.707 157.698 205.878 155.142L205.53 155.269C212.131 152.36 217.758 148.415 222.47 143.574L222.482 143.562C231.997 134.371 237.904 121.498 237.904 107.246C237.904 106.991 237.902 106.739 237.898 106.486V106.524L237.899 106.525ZM212.31 106.525C212.31 106.568 212.31 106.618 212.31 106.668C212.31 110.384 211.534 113.918 210.133 117.119L210.198 116.952C208.83 120.312 206.973 123.196 204.68 125.67L204.697 125.652C202.278 128.078 199.415 130.06 196.239 131.467L196.061 131.538C192.927 132.897 189.276 133.687 185.442 133.687C181.608 133.687 177.958 132.897 174.646 131.471L174.823 131.538C168.3 128.698 163.216 123.572 160.497 117.195L160.43 117.018C159.096 113.921 158.318 110.315 158.318 106.527C158.318 102.739 159.094 99.134 160.497 95.86L160.43 96.037C161.905 92.684 163.888 89.8211 166.315 87.4021C168.731 84.9911 171.596 83.0271 174.773 81.6481L174.95 81.58C178.083 80.216 181.734 79.4201 185.569 79.4201C189.404 79.4201 193.055 80.213 196.363 81.647L196.188 81.58C199.492 83.067 202.313 85.0461 204.693 87.4621L204.696 87.4651C207.095 89.9091 209.056 92.7921 210.446 95.9821L210.517 96.1651C211.773 99.1191 212.503 102.556 212.503 106.163C212.503 106.292 212.502 106.419 212.501 106.548V106.529L212.31 106.525Z"/>
  <path d="M271.61 57.718C269.304 55.456 266.142 54.0601 262.654 54.0601C259.166 54.0601 256.004 55.456 253.696 57.72L253.698 57.718C251.406 59.961 249.985 63.0871 249.985 66.5441C249.985 66.6351 249.986 66.7261 249.987 66.8141V66.8011V155.077C249.976 157.854 249.389 160.491 248.338 162.878L248.387 162.752C247.242 165.234 245.738 167.353 243.911 169.146L243.909 169.148C242.117 170.962 239.997 172.448 237.644 173.509L237.513 173.562C235.199 174.573 232.504 175.161 229.672 175.161C229.641 175.161 229.608 175.161 229.577 175.161H229.583C229.447 175.156 229.287 175.152 229.126 175.152C222.308 175.152 216.781 180.679 216.781 187.498C216.781 187.658 216.783 187.818 216.79 187.977V187.955C216.789 188.016 216.789 188.086 216.789 188.158C216.789 191.608 218.156 194.741 220.377 197.042L220.374 197.039C222.597 199.33 225.706 200.751 229.146 200.751C229.233 200.751 229.32 200.75 229.407 200.749H229.395C229.462 200.749 229.544 200.749 229.623 200.749C235.97 200.749 242.006 199.407 247.458 196.99L247.176 197.101C258.177 192.27 266.781 183.667 271.494 172.965L271.612 172.665C273.798 167.61 275.069 161.724 275.069 155.542C275.069 155.378 275.068 155.213 275.067 155.049V155.075V66.7991C275.074 66.6481 275.077 66.4701 275.077 66.2921C275.077 62.9591 273.755 59.9341 271.609 57.7131L271.612 57.716L271.61 57.718Z"/>
  <path d="M352.593 81.131C352.596 81.242 352.598 81.371 352.598 81.501C352.598 83.111 352.314 84.655 351.795 86.084L351.824 85.99C351.227 87.52 350.405 88.835 349.384 89.966L349.394 89.955C347.294 92.239 344.291 93.665 340.955 93.665C340.93 93.665 340.907 93.665 340.881 93.665H330.266V68.525H340.757C340.774 68.525 340.794 68.525 340.814 68.525C342.509 68.525 344.118 68.902 345.559 69.577L345.491 69.548C346.965 70.217 348.219 71.121 349.26 72.228L349.266 72.234C350.287 73.349 351.11 74.668 351.668 76.115L351.697 76.199C352.264 77.634 352.593 79.295 352.593 81.034C352.593 81.065 352.593 81.098 352.593 81.129V81.123V81.131ZM347.668 81.131C347.67 81.046 347.672 80.946 347.672 80.845C347.672 79.756 347.482 78.71 347.136 77.739L347.157 77.804C346.764 76.686 346.176 75.727 345.426 74.92L345.43 74.926C344.722 74.198 343.87 73.613 342.921 73.217L342.871 73.198C341.86 72.753 340.681 72.493 339.442 72.493C339.411 72.493 339.379 72.493 339.348 72.493H335.13V89.572H339.352C339.4 89.573 339.458 89.573 339.515 89.573C340.7 89.573 341.832 89.337 342.864 88.911L342.806 88.932C343.837 88.49 344.712 87.862 345.424 87.082L345.429 87.076C346.134 86.324 346.698 85.431 347.074 84.445L347.093 84.39C347.458 83.389 347.67 82.233 347.67 81.027C347.67 81.017 347.67 81.008 347.67 80.997V80.998L347.668 81.131ZM363.788 93.668H358.926V68.592H363.788V93.668ZM394.109 89.062C393.427 89.927 392.671 90.683 391.835 91.343L391.806 91.365C391.045 91.96 390.184 92.494 389.267 92.929L389.183 92.965C388.376 93.36 387.435 93.691 386.454 93.909L386.368 93.926C385.946 93.972 385.457 93.998 384.961 93.998C384.465 93.998 383.976 93.972 383.494 93.921L383.554 93.927C383.535 93.927 383.512 93.927 383.49 93.927C381.621 93.927 379.841 93.551 378.219 92.869L378.309 92.903C376.648 92.231 375.225 91.302 374.018 90.147L374.023 90.151C372.775 89.002 371.762 87.621 371.049 86.074L371.015 85.995C370.34 84.488 369.947 82.728 369.947 80.878C369.947 79.028 370.34 77.267 371.048 75.68L371.015 75.762C371.724 74.141 372.695 72.758 373.89 71.607L373.893 71.604C375.1 70.464 376.521 69.535 378.087 68.888L378.179 68.854C379.547 68.342 381.128 68.047 382.776 68.047C383.139 68.047 383.5 68.061 383.855 68.09L383.808 68.088C383.861 68.088 383.922 68.087 383.983 68.087C386.063 68.087 388.029 68.583 389.765 69.465L389.693 69.431C391.484 70.31 392.995 71.493 394.219 72.93L394.236 72.949L390.974 76.34C390.15 75.178 389.077 74.245 387.825 73.612L387.777 73.59C386.631 73.025 385.284 72.695 383.858 72.695C383.841 72.695 383.824 72.695 383.808 72.695H383.81C383.769 72.695 383.72 72.694 383.672 72.694C382.499 72.694 381.382 72.93 380.364 73.355L380.421 73.334C379.355 73.778 378.443 74.382 377.668 75.127L377.67 75.125C376.903 75.875 376.278 76.766 375.837 77.757L375.816 77.811C375.408 78.756 375.17 79.854 375.17 81.009C375.17 82.164 375.407 83.263 375.834 84.261L375.813 84.207C376.721 86.266 378.344 87.869 380.363 88.728L380.42 88.749C381.377 89.154 382.49 89.39 383.658 89.39C383.689 89.39 383.721 89.39 383.752 89.39H383.748C383.759 89.39 383.774 89.39 383.786 89.39C384.927 89.39 386.014 89.154 386.998 88.73L386.945 88.75C387.976 88.316 388.865 87.756 389.643 87.077L389.631 87.087V84.849H384.323V80.691H394.174V89.071L394.109 89.062ZM405.304 93.668H400.442V68.592H405.304V93.668ZM429.804 73.198H422.831V93.668H417.905V73.198H410.932V68.592H429.739V73.198H429.804ZM456.734 93.668H451.361L449.058 88.678H436.839L434.473 93.732H429.165L441.063 68.592H444.837L456.734 93.668ZM447.138 84.585L442.916 75.565L438.694 84.585H447.138V84.585ZM447.778 60.405L443.236 66.482H439.846L442.661 60.405H447.777H447.778ZM478.739 93.668H461.724V68.592H466.969V88.998H478.995V93.668H478.739ZM504.966 93.668H500.232L488.846 76.077V93.668H484.112V68.528H489.549L500.232 84.968V68.528H505.03V93.668H504.966ZM519.103 60.405L514.561 66.482H511.299L514.114 60.405H519.168H519.103ZM517.057 93.668H512.195V68.592H517.057V93.668ZM352.593 136.399C352.593 136.418 352.593 136.441 352.593 136.463C352.593 137.696 352.309 138.862 351.805 139.9L351.826 139.854C351.276 140.983 350.547 141.939 349.661 142.724L349.651 142.732C348.708 143.556 347.605 144.225 346.399 144.689L346.324 144.715C345.079 145.201 343.637 145.482 342.13 145.482C342.097 145.482 342.065 145.482 342.032 145.482H342.037C341.473 145.525 340.814 145.549 340.15 145.549C339.486 145.549 338.828 145.524 338.176 145.477L338.263 145.482C337.083 145.311 336.026 145.043 335.015 144.679L335.128 144.715C334.046 144.325 333.118 143.871 332.248 143.333L332.314 143.371C331.24 142.711 330.323 142.058 329.451 141.349L329.501 141.388L333.915 136.91C334.987 137.857 336.236 138.634 337.603 139.182L337.689 139.212C338.838 139.618 340.162 139.854 341.542 139.854C341.605 139.854 341.667 139.854 341.729 139.852H341.72C341.97 139.894 342.258 139.917 342.552 139.917C342.846 139.917 343.134 139.893 343.415 139.847L343.384 139.85C343.898 139.677 344.343 139.437 344.739 139.138L344.727 139.147C345.078 138.702 345.327 138.161 345.428 137.568L345.43 137.547C345.632 137.179 345.751 136.74 345.751 136.275C345.751 136.249 345.751 136.226 345.75 136.201V136.204C345.794 136.002 345.82 135.771 345.82 135.532C345.82 135.293 345.794 135.063 345.746 134.84L345.749 134.861C345.495 134.395 345.151 134.009 344.736 133.717L344.726 133.71C344.135 133.278 343.462 132.893 342.747 132.585L342.68 132.559L339.034 131.216C337.669 130.717 336.551 130.221 335.469 129.663L335.642 129.745C334.539 129.199 333.592 128.538 332.757 127.757L332.764 127.764C331.954 126.995 331.288 126.084 330.805 125.068L330.781 125.013C330.278 123.902 329.984 122.605 329.984 121.239C329.984 119.873 330.277 118.575 330.804 117.406L330.78 117.465C331.335 116.305 332.088 115.326 333.008 114.532L333.019 114.522C333.959 113.713 335.065 113.062 336.272 112.626L336.345 112.602C337.699 111.992 339.276 111.619 340.936 111.579H340.951C341.134 111.572 341.348 111.568 341.565 111.568C343.636 111.568 345.624 111.924 347.471 112.577L347.348 112.539C349.108 113.208 350.619 114.162 351.898 115.36L351.891 115.353L347.541 119.767C346.786 119.029 345.895 118.424 344.911 117.999L344.854 117.977C343.861 117.572 342.709 117.335 341.501 117.335C341.443 117.335 341.383 117.335 341.326 117.336H341.335C341.075 117.289 340.777 117.261 340.471 117.261C340.165 117.261 339.867 117.288 339.577 117.34L339.607 117.336C339.092 117.526 338.646 117.786 338.256 118.11L338.263 118.104C337.901 118.403 337.601 118.764 337.378 119.173L337.368 119.192C337.166 119.56 337.047 119.999 337.047 120.465C337.047 120.49 337.047 120.514 337.048 120.539V120.536C337.048 120.557 337.047 120.582 337.047 120.607C337.047 121.095 337.166 121.554 337.376 121.959L337.369 121.942C337.643 122.431 338.008 122.837 338.446 123.149L338.457 123.156C339.048 123.583 339.721 123.968 340.433 124.28L340.504 124.308L343.703 125.587C345.306 126.132 346.681 126.759 347.978 127.504L347.86 127.442C348.942 128.063 349.87 128.806 350.667 129.674L350.674 129.682C351.365 130.453 351.91 131.368 352.257 132.377L352.274 132.432C352.519 133.271 352.659 134.236 352.659 135.233C352.659 135.644 352.635 136.049 352.588 136.447L352.592 136.399H352.593ZM383.81 117.977H374.854V144.844H368.457V117.977H359.501V112.604H383.809V117.977H383.81ZM421.232 112.538V130.065C421.232 130.123 421.233 130.192 421.233 130.26C421.233 132.342 420.881 134.344 420.233 136.205L420.271 136.078C419.624 137.956 418.665 139.575 417.444 140.954L417.456 140.939C416.239 142.316 414.745 143.42 413.06 144.169L412.978 144.202C411.265 144.971 409.264 145.418 407.159 145.418C407.091 145.418 407.022 145.418 406.955 145.416H406.965C406.894 145.418 406.81 145.418 406.727 145.418C404.665 145.418 402.701 144.994 400.922 144.228L401.017 144.264C399.236 143.489 397.726 142.408 396.483 141.074L396.476 141.066C395.246 139.722 394.268 138.126 393.628 136.366L393.597 136.267C392.948 134.527 392.574 132.517 392.574 130.42C392.574 130.384 392.574 130.348 392.574 130.312V130.318V112.535H398.971V130.318C398.971 130.36 398.97 130.409 398.97 130.458C398.97 131.663 399.157 132.826 399.504 133.917L399.482 133.837C399.826 134.943 400.352 135.903 401.03 136.731L401.018 136.716C401.709 137.526 402.563 138.175 403.53 138.617L403.575 138.636C404.544 139.081 405.678 139.342 406.873 139.342C406.928 139.342 406.984 139.342 407.039 139.34H407.031C407.113 139.342 407.207 139.343 407.304 139.343C408.497 139.343 409.634 139.107 410.672 138.679L410.614 138.7C411.612 138.279 412.45 137.647 413.099 136.856L413.108 136.845C413.753 136.051 414.257 135.112 414.564 134.088L414.579 134.03C414.904 132.997 415.092 131.807 415.092 130.576C415.092 130.531 415.092 130.486 415.092 130.441V130.448V112.537H421.489L421.232 112.538ZM460.124 128.723C460.124 128.781 460.125 128.849 460.125 128.916C460.125 131.147 459.702 133.279 458.932 135.236L458.972 135.118C458.212 137.095 457.151 138.794 455.826 140.248L455.838 140.236C453.141 143.152 449.297 144.971 445.026 144.971C444.981 144.971 444.936 144.971 444.892 144.971H431.337V112.539H444.834C444.964 112.535 445.117 112.532 445.269 112.532C447.429 112.532 449.479 113.007 451.319 113.855L451.229 113.818C453.103 114.683 454.696 115.845 456.018 117.264L456.026 117.273C457.344 118.712 458.407 120.411 459.124 122.283L459.16 122.391C459.775 124.094 460.131 126.06 460.131 128.11C460.131 128.326 460.128 128.541 460.119 128.756L460.12 128.725L460.124 128.723ZM453.727 128.723C453.734 128.576 453.737 128.403 453.737 128.23C453.737 126.848 453.499 125.522 453.062 124.291L453.088 124.374C452.597 123.011 451.878 121.842 450.97 120.848L450.977 120.856C450.105 119.824 449.042 118.982 447.835 118.386L447.778 118.361C446.48 117.795 444.966 117.466 443.377 117.466C443.35 117.466 443.323 117.466 443.295 117.466H437.605V139.535H443.042C443.18 139.542 443.343 139.545 443.505 139.545C445.044 139.545 446.513 139.235 447.849 138.677L447.775 138.704C449.078 138.153 450.186 137.373 451.097 136.406L451.101 136.401C451.996 135.433 452.713 134.285 453.188 133.018L453.212 132.946C453.551 131.851 453.746 130.593 453.746 129.288C453.746 129.022 453.738 128.757 453.721 128.497L453.723 128.533L453.727 128.723ZM476.052 144.844H469.655V112.86H476.052V144.844ZM519.999 128.723C519.992 131.038 519.499 133.236 518.614 135.223L518.654 135.12C517.727 137.188 516.478 138.951 514.949 140.425L514.944 140.43C513.415 141.91 511.612 143.118 509.622 143.968L509.507 144.011C507.55 144.838 505.274 145.319 502.886 145.319C500.498 145.319 498.222 144.838 496.151 143.967L496.266 144.01C494.134 143.121 492.311 141.911 490.759 140.423L490.766 140.429C489.23 138.951 487.98 137.189 487.098 135.225L487.055 135.12C486.194 133.178 485.694 130.914 485.694 128.531C485.694 126.148 486.194 123.884 487.097 121.836L487.055 121.943C487.977 119.873 489.228 118.11 490.759 116.639L490.765 116.633C493.888 113.624 498.142 111.771 502.829 111.771C502.838 111.771 502.848 111.771 502.856 111.771H502.854C502.888 111.771 502.929 111.771 502.971 111.771C509.903 111.771 515.871 115.901 518.548 121.835L518.591 121.943C519.48 123.876 520 126.137 520 128.519C520 128.591 520 128.663 519.999 128.734V128.723V128.723ZM513.601 128.723C513.611 128.557 513.616 128.362 513.616 128.165C513.616 126.801 513.352 125.497 512.872 124.303L512.897 124.373C512.326 123.032 511.549 121.886 510.592 120.917L510.593 120.918C509.625 119.945 508.48 119.149 507.21 118.58L507.138 118.551C505.894 118.002 504.442 117.681 502.916 117.681C501.39 117.681 499.938 118.001 498.625 118.577L498.693 118.55C497.352 119.145 496.207 119.942 495.239 120.916C494.136 121.865 493.234 123.013 492.581 124.308L492.552 124.371C492.019 125.597 491.709 127.027 491.709 128.529C491.709 130.031 492.019 131.46 492.577 132.757L492.551 132.687C493.122 134.028 493.899 135.173 494.856 136.142L494.855 136.141C495.823 137.115 496.968 137.913 498.238 138.479L498.309 138.508C499.554 139.054 501.006 139.372 502.531 139.372C504.056 139.372 505.509 139.054 506.823 138.481L506.753 138.508C508.094 137.911 509.238 137.114 510.207 136.142C511.163 135.176 511.941 134.029 512.482 132.758L512.509 132.687C513.146 131.54 513.578 130.195 513.721 128.764L513.724 128.721L513.601 128.723Z"/>
</svg>
